<?xml version="1.0" encoding="utf-8"?>
<!-- Generator: Adobe Illustrator 25.2.0, SVG Export Plug-In . SVG Version: 6.00 Build 0)  -->
<svg version="1.1" id="Layer_1" xmlns="http://www.w3.org/2000/svg" xmlns:xlink="http://www.w3.org/1999/xlink" x="0px" y="0px"
	 viewBox="0 0 2500 2500" style="enable-background:new 0 0 2500 2500;" xml:space="preserve">
<style type="text/css">
	.st0{fill:#FFFE06;}
	.st1{fill:none;stroke:#470000;stroke-width:8.41;stroke-miterlimit:10;}
	.st2{fill:#5B21B6;}
	.st3{fill:none;}
	.st4{fill:#D5A4E0;}
	.st5{fill:#FFFFFF;}
	.st6{fill-rule:evenodd;clip-rule:evenodd;fill:#FFFFFF;}
	.st7{fill:#F4BF02;}
	.st8{fill:#D67104;}
	.st9{fill:#F5BE01;}
	.st10{fill:#D67002;}
	.st11{fill:#FFFF9B;}
	.st12{fill:#DC8A03;}
	.st13{fill:#D27805;}
	.st14{opacity:0.79;}
</style>
<path class="st0" d="M322.58,737.9"/>
<line class="st1" x1="1529.81" y1="1080.5" x2="1529.79" y2="1080.5"/>
<g>
	<g>
		<path class="st0" d="M1839.38,836.21c-15.59,0-28.22-1.38-28.22-1.38s12.63-1.38,28.22-1.38c15.59,0,28.22,1.38,28.22,1.38
			S1854.96,836.21,1839.38,836.21z"/>
		<path class="st0" d="M1840.75,834.83c0,15.59-1.38,28.22-1.38,28.22s-1.38-12.63-1.38-28.22s1.38-28.22,1.38-28.22
			S1840.75,819.25,1840.75,834.83z"/>
		<path class="st0" d="M1840.35,835.81c-7.31,7.31-14.21,12.26-14.21,12.26s4.95-6.9,12.26-14.21s14.21-12.26,14.21-12.26
			S1847.66,828.5,1840.35,835.81z"/>
		<path class="st0" d="M1840.35,833.86c7.31,7.31,12.26,14.21,12.26,14.21s-6.9-4.95-14.21-12.26
			c-7.31-7.31-12.26-14.21-12.26-14.21S1833.04,826.55,1840.35,833.86z"/>
	</g>
	<path class="st0" d="M1848.49,846.76h-17.06c-1.7,0-3.07-1.38-3.07-3.07v-17.06c0-1.7,1.38-3.07,3.07-3.07h17.06
		c1.7,0,3.07,1.38,3.07,3.07v17.06C1851.56,845.39,1850.18,846.76,1848.49,846.76z"/>
</g>
<path class="st2" d="M1620.11,1051.42"/>
<path class="st3" d="M406.23,1473.53c11.61-1.57,23.77-3.19,36.46-4.85c-12.07-25.92-24.15-52.42-36.27-79.56
	C406.35,1417.25,406.29,1445.39,406.23,1473.53z"/>
<path class="st3" d="M482.25,1463.6c11.76-1.48,23.87-2.98,36.33-4.49c0.14-25.89,0.27-51.78,0.41-77.67
	C506.72,1408.23,494.48,1435.61,482.25,1463.6z"/>
<path class="st0" d="M449.75,1483.8c8.37-1.09,16.74-2.16,25.12-3.22c2.46-5.69,4.92-11.35,7.39-16.99
	c-13.69,1.72-26.89,3.42-39.57,5.07C445.04,1473.74,447.39,1478.79,449.75,1483.8z"/>
<path class="st4" d="M2231.43,1421.34"/>
<path class="st2" d="M1247.33,2218.82c-130.09-54.1-248.16-119.62-350.93-194.74c-151.03-110.38-264.86-238.81-338.33-381.7
	c-42.68-83.01-74.2-176.1-93.7-276.68c-15.51-80.03-23.49-165-23.72-252.56c-0.39-149.07,21.61-253.08,22.54-257.43l10.86-50.51
	l51.08,27.63c1.61,0.82,27.05,13.57,73.45,26.15c44.02,11.93,116.5,26.15,211.82,26.15c35.42,0,72.07-1.96,108.92-5.82
	c128.49-13.45,207.66-36.4,251.45-53.29c43.42-16.74,61.32-30.9,63.91-33.06l31.97-34.45l29.73,34.51c2.82,2.34,20.78,16.4,63.84,33
	c43.79,16.89,122.96,39.84,251.45,53.29c36.85,3.86,73.5,5.82,108.91,5.82c95.33,0,167.81-14.22,211.82-26.15
	c46.46-12.59,71.89-25.36,73.45-26.15l51.39-27.8l10.54,50.69c0.94,4.35,22.93,108.36,22.54,257.43
	c-0.23,87.55-8.21,172.53-23.72,252.56c-19.49,100.58-51.02,193.66-93.69,276.68c-73.47,142.9-187.3,271.32-338.33,381.7
	c-102.77,75.11-220.84,140.63-350.93,194.74l-18.16,7.55L1247.33,2218.82z"/>
<path class="st5" d="M1265.49,815.44c0,0-70.68,69.5-341.1,97.81c-40.76,4.27-78.78,6.08-113.98,6.08
	c-198.4,0-307.02-57.56-307.02-57.56s-89.12,414.43,92.19,767.07c161.87,314.85,488.61,483.93,669.91,559.33
	c181.31-75.41,508.04-244.48,669.92-559.33c181.3-352.65,92.18-767.07,92.18-767.07s-108.59,57.56-307.02,57.56
	c-35.19,0-73.24-1.81-113.98-6.08C1336.17,884.94,1265.49,815.44,1265.49,815.44L1265.49,815.44z"/>
<path class="st2" d="M1985.82,1355.62c14.84-76.27,22.52-157.4,22.83-241.14c0.32-86.67-7.45-158.39-13.68-201.74
	c-53.97,18.13-146.94,40.8-274.4,40.8c-38.79,0-78.84-2.13-119.04-6.34c-193.68-20.28-291.62-61.49-336.04-87.41
	c-44.42,25.91-142.36,67.13-336.03,87.41c-40.19,4.21-80.25,6.34-119.05,6.34c-127.44,0-220.42-22.67-274.4-40.8
	c-6.23,43.36-14,115.07-13.68,201.75c0.31,83.74,7.99,164.87,22.83,241.14c12.39,63.65,29.84,123.98,52.05,180.28l1340.26-9.53
	C1957.93,1472.81,1974.13,1415.7,1985.82,1355.62z"/>
<g>
	<path class="st2" d="M1950.84,517.95c-29.19-24.09-62.02-36.31-97.6-36.31c-43.12,0-87.99,17.88-133.85,53.24v-9.9
		c0-30.78-25.04-55.83-55.83-55.83h-6.33c-4.2-0.59-8.62-0.88-13.38-0.88c-4.73,0-9.7,0.27-15.86,0.88h-40.08
		c-10.45-4.27-21.32-11.86-32.75-19.83c-1.48-1.03-2.96-2.06-4.44-3.09c-3.44-2.89-11.56-9.57-20.44-15.87l-2.57-2.79
		c-14.41-15.64-34.87-24.61-56.13-24.61h-39.46c-9.83-0.93-20.03-1.41-30.35-1.41c-10.29,0-20.98,0.47-31.89,1.41h-11.91l-3.05-3.27
		c3.05-9.47,4.61-19.41,4.61-29.55c0-53.21-43.29-96.5-96.5-96.5c-53.21,0-96.5,43.29-96.5,96.5c0,11.34,1.98,22.43,5.73,32.82
		h-110.25c-21.27,0-41.73,8.97-56.13,24.61l-32.54,35.33l-15.63,6.25h-91.29c-30.78,0-55.83,25.05-55.83,55.83v9.54
		c-38.29-29.23-84.37-52.88-133.18-52.88c-8.25,0-16.49,0.68-24.51,2.02c-27.81,3.84-53.72,15.56-76.99,34.81
		c-28.14,23.23-49.02,50.98-62.09,82.5c-13.18,31.8-17.78,65.88-13.66,101.3c6.25,53.78,31.7,108.92,75.67,163.94
		c2.94,3.66,6.1,7.57,9.57,11.6l31.24,36.18l2.94-3.39c0.24,0.24,0.49,0.48,0.73,0.72c0.9,0.92,1.82,1.85,2.75,2.78
		c0.93,0.94,1.86,1.88,2.8,2.84l0.33,0.34c0.33,0.32,0.87,0.87,1.59,1.53l5.81,5.7c0.44,0.43,0.97,0.95,1.61,1.53
		c1.81,1.73,3.65,3.47,5.49,5.19c1.05,0.99,2.12,1.98,3.2,2.98l2.27,2.1c9.96,9.18,20.46,18.39,31.29,27.44
		c23.68,30.72,54.11,56.92,88.27,75.96c10.27,5.73,20.69,9.72,29.88,13.25c5.14,1.97,10.02,3.85,14.24,5.78
		c5.63,3.54,11.28,7.03,16.83,10.43c1.21,0.84,2.42,1.69,3.62,2.53c11.65,8.14,23.69,16.56,38.12,24.28
		c14.05,7.52,28.57,14.91,44.36,22.56c19.02,10.27,38.99,20.66,59.48,30.95c15.81,18.66,33.48,35.98,52.66,51.59l0.13,0.12
		l0.14,0.11c25.51,24.33,53.62,44.94,83.89,61.54c0.33,22.51,9.97,43.75,27.27,61.21c-0.52,4.33-0.77,8.69-0.77,13.08
		c0,27.33,10.38,53.66,28.62,74.41l-23.79,162.49c-6.68,12.05-10.21,25.62-10.21,39.42v1.28c-29.32,0.18-53.11,24.08-53.11,53.42
		v27.69h-36.95c-11.14,0-21.68,2.43-30.8,6.88l-47.51-1.88l16.85,50.45v22.45c-5.55,1.35-10.78,3.27-15.57,5.7l-48.04,0l18.37,51.92
		v78.58l666.73-0.37v-84.76c0-19.08-11.11-36.08-29.72-45.46c-4.79-2.42-10.01-4.3-15.52-5.63v-2.26l9.64-70.68h-44.68
		c-8.1-3.24-17.09-4.95-26.42-4.95h-36.95v-27.69c0-29.46-23.98-53.43-53.45-53.43h-12.13v-1.28c0-13.8-3.52-27.39-10.21-39.44
		l-23.77-162.34c13.15-14.83,22.15-32.48,26.19-51.64l5.82-11.89l-3.44-8.06c0.03-0.99,0.04-1.97,0.04-2.95
		c0-4.38-0.26-8.74-0.78-13.07c15.56-15.71,24.93-34.49,26.9-54.48c51.42-25.73,96.61-62.46,134.78-109.59l21.15-0.02v-15.13
		c59.11-30,113.25-60.61,161.3-91.19c0.6-0.23,1.2-0.46,1.8-0.69c9.19-3.52,19.61-7.52,29.89-13.25
		c30.53-17.02,57.36-39.02,79.78-65.43c62.06-50.06,109.47-100.86,140.95-151.06c30.76-49.05,46.55-97.63,46.93-144.38
		C2028.79,616.77,2001.29,559.64,1950.84,517.95z M1873.32,704.23c-0.2,1.53-0.49,3.12-0.86,4.79l-0.13,0.55
		c-0.15,0.65-0.31,1.3-0.48,1.92l-0.14,0.52c-0.16,0.59-0.34,1.19-0.53,1.79l-0.23,0.7c-0.19,0.56-0.38,1.12-0.61,1.74l-0.25,0.67
		c-0.21,0.55-0.43,1.09-0.64,1.58l-0.3,0.69c-0.28,0.65-0.57,1.29-0.88,1.93l-0.39,0.79l-0.35,0.8c-0.71,1.62-1.52,3.4-2.5,5.45
		l-0.68,1.4c-0.67,1.39-1.36,2.77-2.05,4.11l-0.72,1.39c-0.95,1.82-1.83,3.46-2.67,4.97l-0.19,0.34c-0.95,1.69-1.98,3.47-3.14,5.4
		l-0.36,0.58c-0.94,1.55-1.89,3.09-2.89,4.65l-0.59,0.92c-1.04,1.62-2.11,3.22-3.19,4.81l-0.27,0.4c-2.35,3.41-4.87,6.88-7.54,10.35
		l-0.37,0.48c-1.24,1.61-2.5,3.2-3.86,4.87l-0.22,0.27c-2.73,3.35-5.63,6.73-8.61,10.03l-0.18,0.19c-1.46,1.61-2.93,3.21-4.46,4.83
		l-0.2,0.21c-4.58,4.84-9.52,9.73-14.67,14.52l-0.16,0.14l28.16,30.33l-28.3-30.2c-4.99,4.63-10.35,9.33-15.91,13.95l-0.4,0.33
		c-1.76,1.46-3.53,2.9-5.37,4.37l-0.15,0.13c-3.65,2.92-7.48,5.9-11.39,8.84l-0.74,0.56c-1.64,1.23-3.3,2.46-4.94,3.67l-1.03,0.75
		c-1.81,1.32-3.63,2.63-5.45,3.93l-0.77,0.55c-1.75,1.24-3.52,2.48-5.27,3.69l-1.63,1.12c-1.34,0.92-2.68,1.84-4.02,2.75l-2.23,1.51
		c-1.16,0.78-2.32,1.55-3.53,2.35l-2.48,1.64c-0.95,0.63-1.91,1.25-2.87,1.87l-0.71,0.46c-1.82,1.18-3.64,2.35-5.48,3.53l-1.48,0.95
		c-1.49,0.94-2.97,1.89-4.35,2.75l-0.65,0.41c-12.93,8.1-27.22,16.62-44.8,26.71c-1.9,0.83-3.79,1.74-5.69,2.71
		c10.23-44.51,17.63-93.66,22.97-151.51c0.81-5.71,1.6-11.38,2.38-17.08c13.34-2.99,24.92-9,34.17-14.44
		c29.28-17.21,58.06-36.21,85.59-56.49c4.94-2.31,9.58-3.67,13.76-4.05c0.48-0.04,0.96-0.07,1.52-0.1l-0.18,0.01l0.46-0.02
		c0.32-0.01,0.64-0.03,0.98-0.03c0,0,1.12,0,1.25,0l0.59,0.01c0.33,0.01,0.66,0.03,0.99,0.05c0.11,0.01,0.22,0.01,0.33,0.02
		c0.31,0.02,0.6,0.05,0.83,0.07c0,0,0.99,0.12,1.28,0.16l0.41,0.06c0.25,0.04,0.99,0.17,0.99,0.17c0.32,0.06,0.65,0.13,0.97,0.21
		l0.29,0.07c0.6,0.15,1.19,0.31,1.72,0.48l0.27,0.09c0.3,0.1,0.59,0.2,0.92,0.32l0.14,0.05c0.3,0.11,0.59,0.23,0.9,0.35l0.12,0.05
		c0.92,0.39,1.85,0.84,2.75,1.35l0.04,0.02c0.31,0.18,0.62,0.36,0.93,0.55l0.2,0.12c5.29,3.31,9.91,8.64,13.39,15.41l0.05,0.09
		c0.22,0.42,0.42,0.85,0.63,1.28l0.08,0.18c0.62,1.32,1.2,2.69,1.73,4.09l0.14,0.4c0.14,0.39,0.28,0.78,0.43,1.22l0.11,0.32
		c0.13,0.37,0.25,0.74,0.36,1.12l0.16,0.51c0.13,0.43,0.26,0.86,0.37,1.25l0.06,0.22c0.13,0.46,0.25,0.92,0.36,1.36l0.36,1.5
		l0.18,0.82l0.3,1.52l0.09,0.54c0.21,1.22,0.39,2.44,0.53,3.62l0.04,0.3c0.04,0.38,0.08,0.76,0.11,1.14l0.02,0.2
		c0.34,3.76,0.34,7.55-0.01,11.38C1873.54,702.45,1873.45,703.3,1873.32,704.23z M704.63,653.14
		c27.36,20.16,56.15,39.17,85.67,56.53c11.93,7.01,30.18,16.32,50.93,16.32c0.22,0,0.45,0,0.67,0c1.1,15.53,2.58,32.14,4.54,49.58
		c4.96,43.94,12.09,85.58,21.36,124.77l-5.41-2.4c-83.14-47.08-165.23-97.5-199.28-175.23l-0.34-0.78l-0.37-0.76
		c-8.35-17.12-7.36-39.48,2.46-55.65c6.26-10.31,14.64-15.84,24.91-16.48c0.41,0.03,0.89,0.06,1.35,0.1
		C695.27,649.55,699.8,650.89,704.63,653.14z"/>
</g>
<g>
	<path class="st0" d="M1924.09,551.07c-21.46-17.75-45.27-26.72-70.8-26.72c-4.23,0-8.57,0.24-12.92,0.72
		c-7.66,0.84-15.24,2.43-22.69,4.63c-18.47,5.38-36.34,14.4-52.93,25.17c-23.09,15-43.79,33.3-60.11,49.74l-6.94,6.98l-9.77,9.81
		L1677.36,632V525.66c0-7.62-6.18-13.8-13.8-13.8h-116.06l-0.56-0.64l-3.11-3.43l-1.76-1.95l-16.67-18.11l-18.35-19.9l-6.18-6.74
		l-0.04-0.04l-4.03-4.35c-6.46-7.02-15.64-11.05-25.21-11.05h-152.84l-0.6-0.64l-28.12-30.19l9.77-10.85
		c8.3-9.17,12.84-20.94,12.84-33.14c0-27.36-22.26-49.66-49.62-49.66c-5.42,0-10.65,0.88-15.51,2.51
		c-15.83,5.18-28.16,18.19-32.47,34.42c-1.08,4.07-1.64,8.34-1.64,12.72c0,14.48,6.38,28.24,17.51,37.73l12.68,10.81l-23.89,25.65
		l-0.6,0.64h-157.11c-9.57,0-18.75,4.03-25.25,11.05l-38.01,41.28l-7.3,7.94l-0.2,0.28l-1.48,1.52l-0.24,0.24l-3.15,3.27l-0.6,0.64
		H866.42c-7.62,0-13.8,6.18-13.8,13.8v72.47c1,3.15,3.03,5.82,5.66,7.62c2.31,1.6,5.15,2.51,8.14,2.51h14.76
		c0,0-19.22,316.89,127.95,513.32l1.87,0.92l2.23,2.95c13.16,17.07,27.28,32.75,42.28,46.9c1.87,1.83,3.79,3.59,5.7,5.3
		c1.04,1,2.11,1.95,3.19,2.91c1.8,1.6,3.59,3.15,5.38,4.71c19.78,16.87,41.04,31.43,63.54,43.43c0.12,0.12,0.28,0.16,0.4,0.2
		c3.35,1.83,6.78,3.59,10.21,5.26l7.34,3.59l2.99,1.44l1.36,0.68l-0.04,0.16l-0.08,0.32l-3.15,12.12c-0.84,3.27-1.28,6.58-1.28,9.85
		c0,18.79,13.08,32.43,24.05,40.56l8.81,6.5l-2.91,10.53c-1.63,5.9-2.43,11.89-2.43,17.87c0,20.46,9.13,39.53,25.73,53.68l5.58,4.79
		v134.05c0,7.46-1.99,14.76-5.78,21.18l-25.57,43.12c-3.51,5.9-5.34,12.64-5.34,19.5v44.31h-42.68c-5.74,0-10.45,4.67-10.45,10.41
		v70.72h-79.97c-10.17,0-18.43,4.67-18.43,10.41v65.17H998.6c-13.24,0-22.14,5.34-22.14,10.37v42.08l298.18-0.16l282.5-0.16v-41.76
		c0-3.27-3.75-6.66-10.01-8.61c-0.4-0.12-0.84-0.24-1.32-0.4c-0.92-0.24-1.88-0.44-2.91-0.64c-0.52-0.12-1.08-0.2-1.64-0.28
		c-0.48-0.04-1-0.12-1.52-0.2c-1.52-0.16-3.07-0.24-4.75-0.24h-23.09v-65.17c0-3.03-2.31-5.74-5.98-7.62
		c-3.27-1.76-7.66-2.79-12.48-2.79h-79.93v-70.72c0-0.72-0.08-1.44-0.2-2.11c0-0.04,0-0.08-0.04-0.12
		c-1.04-4.67-5.22-8.18-10.21-8.18h-55.16v-44.31c0-6.86-1.83-13.6-5.34-19.5l-2.19-3.67c0-0.08-0.04-0.16-0.12-0.28L1317,1551.5
		c-0.88-1.48-1.64-2.99-2.35-4.59c-2.23-5.22-3.43-10.85-3.43-16.59v-134.05l5.58-4.79c4.99-4.23,9.29-8.93,12.88-13.92
		c0.12-0.16,0.2-0.32,0.32-0.48c8.18-11.65,12.56-25.13,12.56-39.29c0-2.15-0.12-4.35-0.4-6.54c-0.32-3.79-1.04-7.54-2.07-11.29
		l-2.91-10.53l8.81-6.54c2.75-2.03,5.62-4.43,8.38-7.14c0.08-0.08,0.12-0.12,0.2-0.2c8.22-8.1,15.48-19.26,15.48-33.22v-0.48
		c-0.04-1.6-0.2-3.39-0.52-5.58l-1.79-11.53l-0.08-0.48l11.09-4.99c6.54-2.95,13-6.1,19.34-9.41c0.88-0.48,1.75-0.92,2.59-1.4
		c1.79-0.96,3.59-1.91,5.34-2.91c1.75-1,3.51-1.99,5.26-3.03c1.76-1.04,3.47-2.07,5.22-3.11c1.72-1.04,3.43-2.11,5.15-3.19
		c1.44-0.92,2.87-1.79,4.27-2.75c1.99-1.28,3.99-2.59,5.94-3.91c13.44-9.05,26.28-19.14,38.61-30.19
		c5.46-4.91,10.85-9.97,16.07-15.28c2.75-2.79,5.5-5.62,8.22-8.54c1.36-1.44,2.67-2.91,4.03-4.39c2.71-2.95,5.34-5.94,7.94-9.01
		c1.32-1.52,2.59-3.07,3.87-4.63c1.32-1.56,2.59-3.11,3.87-4.71c2.55-3.15,5.07-6.34,7.54-9.61l2.27-2.99l1.28-0.6
		c0.12-0.08,0.28-0.16,0.4-0.2l0.2-0.12c0.08,0,0.08-0.04,0.08-0.04l0.32-0.16l1.08-0.52c0.84-0.4,1.67-0.84,2.51-1.24
		c162.81-80.89,269.54-155.83,338.46-222.32c15.51-15,29.16-29.51,41-43.59c3.03-3.51,5.86-7.02,8.61-10.45
		c44.59-55.8,62.34-104.06,66.85-142.83C1991.69,641.25,1970.03,589,1924.09,551.07z M1914.83,705.98
		c-1.04,11.65-4.11,23.25-9.37,34.02c-33.94,77.5-105.97,129.51-181.12,174.06c-40.32,23.89-81.56,45.63-118.26,68
		c31.07-78.49,44.55-160.38,52.33-245.01c3.27-23.01,6.26-45.99,9.25-68.8c24.65,10.45,38.65,6.14,66.05-11.49
		c15.36-9.89,47.66-29.71,70-40.2c8.85-4.19,18.27-7.1,28.04-7.98C1886.44,603.72,1919.46,655.49,1914.83,705.98z M997.64,1115.92
		c2.15,1.04,4.31,2.11,6.46,3.19c-38.65-41.6-54.28-97.16-69.48-130.82C828.69,921.72,679.04,862.93,625.2,740
		c-26.8-54.96,3.39-130.14,64.69-131.7c1.56,0.04,3.11,0.16,4.71,0.28c9.77,0.88,19.18,3.79,28.04,7.98
		c1.12,0.52,2.27,1.08,3.47,1.68c27.36,20.34,55.8,39.17,85.15,56.44c12.76,7.5,28.64,14.8,41.68,7.78
		c5.78-3.11,9.65-8.62,11.57-14.88c0.32-0.12,0.68-0.28,1.04-0.44c5.54-2.51,7.34-9.45,3.63-14.24c-1.56-1.99-3.35-4.31-5.38-6.86
		c-2.39-6.54-6.38-12.44-11.17-17.71v2.87l-10.81-10.81l-10.57-10.61l-5.86-5.86c-32.67-32.71-82.6-72.95-135.09-78.85
		c-4.35-0.48-8.7-0.72-12.92-0.72c-0.36,0-0.76,0-1.12,0.04h-0.32c-24.97,0.32-48.26,9.25-69.36,26.68
		c-45.95,37.93-67.61,90.18-60.98,147.1c4.75,40.68,23.97,91.66,73.27,150.76c3.71,4.43,7.54,8.89,11.53,13.4
		c2.11,2.35,4.27,4.71,6.5,7.1c1.99,2.15,4.07,4.39,6.18,6.58c1.04,1.12,2.11,2.23,3.19,3.31c1.04,1.12,2.11,2.23,3.27,3.35
		c1.91,1.95,3.91,3.95,5.9,5.98c0.24,0.24,0.52,0.52,0.8,0.76c2.11,2.07,4.27,4.19,6.46,6.34c0.16,0.16,0.32,0.32,0.48,0.44
		c68.6,65.85,174.18,139.88,334.43,219.73H997.64z"/>
</g>
<g>
	<g>
		<path class="st6" d="M1985.07,698.16c-4.51,38.77-22.26,87.03-66.85,142.83c-2.75,3.43-5.58,6.94-8.61,10.45
			c-3.39-3.91-6.74-8.02-10.05-12.32c157.66-288.57-86.55-293.51-86.55-293.51l4.67-15.91c7.46-2.19,15.04-3.79,22.69-4.63
			c4.35-0.48,8.69-0.72,12.92-0.72c25.53,0,49.34,8.97,70.8,26.72C1970.03,589,1991.69,641.25,1985.07,698.16z"/>
	</g>
</g>
<g>
	<path class="st7" d="M1705.7,927.05c-5.24-1.58-24.2,11.66-28.84,14.27c-21.45,12.09-42.96,24.08-64.09,36.74
		c-0.76,1.38-1.52,2.74-2.24,4.15c-9.83,19.16-16.36,39.28-27.09,58.1c-6.26,10.96-11.85,22.01-17.02,33.15v22.2
		c24.37-11.05,48.39-22.86,71.98-35.49c17.3-9.26,31.56-20.4,47.59-31.12c16.27-10.88,37.21-15.17,54.48-24.8
		c36.14-20.15,67.3-49.35,89.17-84.52c-30.72,18.94-62.88,38.37-98.82,41.71c-8.5,0.79-18.3,0.11-23.68-6.52
		c-2.87-3.54-3.65-7.82-3.6-12.26c0.03-2.96,4.35-12.78,3.23-14.79C1706.54,927.46,1706.18,927.19,1705.7,927.05z"/>
</g>
<g>
	<path class="st8" d="M1631.96,967.37c-2.53,10.02,1.68,21.4,10.13,27.35c11.64,8.2,27.14,9.36,41.05,6.3
		c30.87-6.8,62.06-17.47,92.93-24.26c-75.79,38.03-151.58,76.06-227.36,114.09c-7.71-31.83-0.95-66.88,18.04-93.57
		c9.14-12.84,21.06-23.66,34.57-31.75c9.22-5.52,29.03-17.4,39.91-12.89C1637.66,957.09,1633.48,961.36,1631.96,967.37z"/>
</g>
<g>
	<g>
		<path class="st9" d="M1781.62,588.12c-12.84,4.69-22.28-6.67-24.77-19.09c-8.52,6.39-15.6,17.59-22.9,24.93
			c-9.73,9.8-26.4,14.61-35.68,24.86c-11.59,12.8-15.82,29.44-25.19,42.96c-1.3,2.36-2.63,4.7-3.88,7.08
			c23.69,9.61,37.7,5.16,64.52-12.09c15.36-9.89,47.66-29.71,70-40.2c8.85-4.19,18.27-7.1,28.04-7.98
			c54.68-4.87,87.71,46.9,83.08,97.4C1935.45,630.28,1902.55,559.36,1781.62,588.12z"/>
	</g>
</g>
<g>
	<g>
		<path class="st10" d="M1712.4,598.21c-5.39,4.03-2.9,13.39,2.88,16.83c5.78,3.44,13.02,2.76,19.7,1.97
			c26.43-3.13,52.86-6.26,79.28-9.38c-31.6,24.4-64.74,46.8-99.16,67.04c-12.78,7.51-28.66,14.83-41.71,7.8
			c-10.9-5.87-15-20.29-12.06-32.31c2.95-12.02,11.47-21.9,20.74-30.1c15.12-13.37,33.01-23.6,52.21-29.86"/>
	</g>
</g>
<g>
	<g>
		<path class="st6" d="M541.28,698.16c4.51,38.77,22.26,87.03,66.85,142.83c2.75,3.43,5.58,6.94,8.61,10.45
			c3.39-3.91,6.74-8.02,10.05-12.32C469.13,550.55,713.34,545.6,713.34,545.6l-4.67-15.91c-7.46-2.19-15.04-3.79-22.69-4.63
			c-4.35-0.48-8.69-0.72-12.92-0.72c-25.53,0-49.34,8.97-70.8,26.72C556.31,589,534.66,641.25,541.28,698.16z"/>
	</g>
</g>
<g>
	<path class="st7" d="M820.65,927.05c5.24-1.58,24.2,11.66,28.84,14.27c21.45,12.09,42.96,24.08,64.09,36.74
		c0.76,1.38,1.52,2.74,2.24,4.15c9.83,19.16,16.36,39.28,27.09,58.1c6.26,10.96,11.85,22.01,17.02,33.15v22.2
		c-24.37-11.05-48.39-22.86-71.98-35.49c-17.3-9.26-31.56-20.4-47.59-31.12c-16.27-10.88-37.21-15.17-54.48-24.8
		c-36.14-20.15-67.3-49.35-89.17-84.52c30.72,18.94,62.88,38.37,98.82,41.71c8.5,0.79,18.3,0.11,23.68-6.52
		c2.87-3.54,3.65-7.82,3.6-12.26c-0.03-2.96-4.35-12.78-3.23-14.79C819.81,927.46,820.17,927.19,820.65,927.05z"/>
</g>
<g>
	<path class="st8" d="M894.39,967.37c2.53,10.02-1.68,21.4-10.13,27.35c-11.64,8.2-27.14,9.36-41.05,6.3
		c-30.87-6.8-62.06-17.47-92.93-24.26c34.91,17.52,69.82,35.03,104.72,52.55c33.64,16.88,67.08,34.99,101.25,50.54
		c3.03,1.38,6.16,2.98,9.39,1.03c2.61-1.58,3.66-4.98,3.32-8.02c-0.34-3.04-1.8-5.82-3.24-8.51
		c-10.89-20.42-21.79-40.84-32.68-61.26c-5.11-9.58-10.28-19.25-17.34-27.5c-7.27-8.51-16.46-15.35-26.69-19.88
		C890.58,959.36,893.71,963.45,894.39,967.37z"/>
</g>
<g>
	<g>
		<path class="st9" d="M857.17,668.85c-7.46,3.03-13.96,4.67-20.22,4.95h-0.16c-13.52,0.56-25.85-5.26-44.15-17.03
			c-14.56-9.37-44.43-27.72-66.53-38.53c-1.2-0.6-2.35-1.16-3.47-1.68c-8.85-4.19-18.27-7.1-28.04-7.98
			c-1.6-0.12-3.15-0.24-4.71-0.28c-51.85-1.56-82.88,48.66-78.37,97.68c-20.62-75.7,12.28-146.62,133.22-117.86
			c12.84,4.71,22.3-6.66,24.77-19.1c8.54,6.38,15.6,17.59,22.89,24.93c6.22,6.26,15.28,10.53,23.45,15.48
			c4.59,2.75,8.89,5.74,12.24,9.41c11.57,12.8,15.79,29.44,25.17,42.96C854.57,664.14,855.89,666.5,857.17,668.85z"/>
	</g>
</g>
<g>
	<path class="st0" d="M802.41,593.98l-10.33-3.79C795.58,591.31,799.01,592.59,802.41,593.98z"/>
</g>
<g>
	<path class="st0" d="M815.85,600.33c-4.27-2.27-8.66-4.35-13.12-6.22l11.25,4.11C814.77,598.81,815.41,599.53,815.85,600.33z"/>
</g>
<g>
	<g>
		<path class="st10" d="M864.51,667.57c-1.91,6.26-5.78,11.77-11.57,14.88c-13.04,7.02-28.92-0.28-41.68-7.78
			c-29.36-17.27-57.79-36.1-85.15-56.44c-2.07-1.52-4.15-3.07-6.18-4.67c-2.63-1.95-5.27-3.95-7.86-5.94
			c26.44,3.11,52.89,6.26,79.29,9.37c6.7,0.8,13.92,1.48,19.7-1.95c2.11-1.28,3.79-3.31,4.79-5.62c1.36-3.03,1.56-6.5,0-9.09
			c5.3,2.83,10.45,5.98,15.4,9.45c0.68,0.48,1.36,0.96,2.03,1.48c3.79,2.75,7.46,5.7,11.01,8.81c2.91,2.59,5.74,5.34,8.34,8.26
			c4.79,5.26,8.77,11.17,11.17,17.71c0.48,1.36,0.88,2.71,1.24,4.11C866.42,655.81,866.22,661.99,864.51,667.57z"/>
	</g>
</g>
<g>
	<g>
		<path class="st11" d="M1261.56,345.98c0,13.72-11.13,24.85-24.81,24.85c-9.33,0-17.43-5.15-21.7-12.72
			c4.31-16.23,16.63-29.24,32.47-34.42C1255.82,327.63,1261.56,336.17,1261.56,345.98z"/>
	</g>
</g>
<g>
	<g>
		<path class="st12" d="M1275.25,322.91c34.83,49.35-19.16,101.24-64.1,57.86c9.29,40.31,85.28,62.75,99.5,15.38
			c6.16-27.19,0.27-70.7-32.72-76.06"/>
	</g>
</g>
<g>
	<path class="st0" d="M1132.73,1702.57l10.21-23.4c0,0,163.65-8.45,162.59-7.74c-1.06,0.7-182.37-9.93-182.37-9.93L1132.73,1702.57z
		"/>
</g>
<g>
	<path class="st0" d="M1033.31,1784.92l10.21-24.99c0,0,187.05-7.57,185.99-6.86s-209.44-7.82-209.44-7.82L1033.31,1784.92z"/>
</g>
<g>
	<path class="st0" d="M986.21,1857.13l7.98-25.1c0,0,198.57-3.25,199.78-3.64c21.12-6.71-220.35-6.85-220.35-6.85L986.21,1857.13z"
		/>
</g>
<g>
	<polygon class="st0" points="979.87,1847.04 1477.26,1847.04 1502.6,1816.54 1547.65,1820.29 1550.93,1843.75 1543.89,1862.05 
		974.82,1869.22 	"/>
</g>
<g>
	<path class="st0" d="M1024.45,1787.91l406.36-2.82l46.92-42.23h39.42l-4.74,34.72c0,0-6.99,37.54-9.81,38.95
		c-2.82,1.41-141.71,6.1-141.71,6.1l-332.69-16.89L1024.45,1787.91z"/>
</g>
<g>
	<path class="st0" d="M1127.45,1704.86c12.67,0,227.7-1.76,227.7-1.76l46.81-31.67l13.18,45.05c0,0-4.03,17.24-59.64,17.24
		s-218.55,0-218.55,0l-16.86-11.26L1127.45,1704.86z"/>
</g>
<g>
	<path class="st0" d="M1192.55,1331.12c0,0,37.67,28.88,105.89,18.75c5.24-0.78,9.21,4.77,6.52,9.34
		c-8.28,14.12-22.06,29.19-48.72,40.18c-34.14,14.08,30.62,16.19,40.12,10.21c9.5-5.98,23.23-24.28,26.39-25.69
		c3.17-1.41,20.7-36.26,20.7-36.26l-12.28-26.03c0,0-30.6,1.47-30.24,3.87c0.35,2.4-77.84,9.5-77.84,9.5L1192.55,1331.12z"/>
</g>
<g>
	<path class="st0" d="M1166.16,1261.79c0,0,40.22,37.84,141.49,22.78c6.58-0.98,9.26,8.13,3.17,10.81
		c-20.61,9.08-48.58,15.68-70.4,15.68c-33.43,0,60.88,16.83,60.88,16.83s42.23-30.9,45.05-31.96s18.3-24.99,18.3-24.99
		s-10.8-15.89-13.02-17.6s-81.65,13.73-81.65,13.73L1166.16,1261.79z"/>
</g>
<g>
	<g>
		<path class="st11" d="M959.56,746.24c-9.99-36.63,12.37-59.81,49.52-56.52c67.23-0.97,147.08-4.02,214.31-4.99
			c106.38-14.92,30.4,223.65-19.72,247.85c-46.43,27.35-121.12,26.82-172.71,19.81C983.15,951.61,967.48,779.39,959.56,746.24z"/>
	</g>
</g>
<g>
	<path class="st0" d="M889.35,676.35c1.32,7.58,2.31,13.4,2.43,14.2C891.51,689.87,889.19,684,889.35,676.35z"/>
</g>
<g>
	<path class="st13" d="M1668.31,663.38c-0.2,1.64-0.44,3.23-0.64,4.87c-2.99,22.81-5.98,45.79-9.25,68.8
		c-2.71,19.46-5.66,38.97-8.93,58.39c-11.21,66.09-26.52,131.26-52.25,192.09c-2.75,6.5-5.62,12.96-8.62,19.38
		c-0.68,1.48-1.36,2.91-2.07,4.35c-6.38,13.36-13.32,26.44-20.94,39.29c-23.73,40.04-53.49,76.5-87.75,108.01
		c-33.02,30.39-63.78,64.02-106.49,80.85c-29.36,11.53-61.02,16.51-92.57,17.27c-40.24,0.92-80.65-4.99-119.02-17.27
		c-4.07-1.32-8.06-2.75-11.97-4.35c-4.79-1.83-9.49-3.91-14.08-6.14c-0.12-0.04-0.28-0.08-0.4-0.2
		c-23.05-11.17-43.75-26.36-63.54-43.43c-1.79-1.56-3.59-3.11-5.38-4.71c-1.08-0.96-2.15-1.91-3.19-2.91
		c-1.91-1.71-3.83-3.47-5.7-5.3c3.79-3.55,7.82-7.06,12.13-10.61c184.11,81.37,303.28,38.89,380.5-49.46
		c71.75-82.16,107.21-204.01,124.68-302.89c3.39-18.91,6.06-36.97,8.22-53.76c1.44-11.17,1-22.1-1.08-32.51
		c-7.66-39.01-38.05-70.56-77.58-79.25c-6.5-1.48-13.28-2.27-20.26-2.39c-35.66-0.64-77.7-1.36-122.33-2.03
		c-160.66-2.55-354.74-4.99-403.4-3.03c-56.36,2.27-66.73,24.57-67.05,39.84c-2.71-15.55-6.62-38.45-6.62-40.32
		c0-2.83,9.09-27.68,9.09-27.68l79.13,5.62c113.39-0.92,226.83-1.83,340.26-2.75c19.94-0.16,39.84-0.32,59.79-0.48
		c43.23-0.36,86.47-0.72,129.67-1.08c9.41-0.08,18.83-0.16,28.24-0.24c16.63-0.12,33.26,0.16,49.9-0.12
		c4.27-0.08,8.58-0.2,12.84-0.36c2.31-0.08,4.67-0.32,7.02-0.6c4.83-0.64,9.69-1.6,14.52-2.51c12.17-2.39,23.89-4.51,33.7,0
		c1.52,0.64,2.95,1.48,4.35,2.51c0.4,0.28,0.84,0.6,1.24,0.96c4.19,3.31,7.9,8.38,11.05,15.71c0.96,2.23,1.76,4.51,2.47,6.82
		c1.2,3.99,2.03,8.14,2.51,12.28C1669.26,650.46,1669.14,656.96,1668.31,663.38z"/>
</g>
<g>
	<path class="st13" d="M1020.46,489.31l442.72-4.93c0,0,23.01-7.74,20.3-25.34s41.91,20.66,41.91,20.66v18.76l-361.36,15.38
		l-161.88-3.93l-23.94-3.71L1020.46,489.31z"/>
</g>
<g>
	<path class="st13" d="M865.38,580.11l714.79-6.52c17.93-0.16,31.72-15.9,29.53-33.69l-1.99-16.18l70.28,1.95l-6.28,80.08H858.28
		L865.38,580.11z"/>
</g>
<g class="st14">
	<g>
		<path class="st9" d="M1671.38,543.13c-1.44,21.02-2.67,41.88-3.87,62.62c-0.04,0.68-0.08,1.32-0.12,1.99
			c-0.48,8.02-0.92,16.03-1.4,24.01c-0.36,5.58-0.68,11.13-1.04,16.71c-0.36,5.98-0.72,12.01-1.12,17.99
			c-1.52,23.73-3.23,47.26-5.42,70.6c-7.78,84.64-21.26,166.52-52.33,245.01h-0.04c-18.35,46.35-42.84,91.46-75.9,135.29
			c-1.08,0.48-2.27,1-3.43,1.64c-0.04,0.04-0.08,0.04-0.08,0.04c-0.16,0.08-0.28,0.16-0.44,0.24c-0.08,0.04-0.16,0.08-0.24,0.16
			c-0.12,0.04-0.28,0.12-0.4,0.2c-0.72,0.48-1.44,1-2.03,1.6c-0.64,0.56-1.12,1.24-1.52,1.99c-2.47,3.27-4.99,6.46-7.54,9.61
			c-1.28,1.6-2.55,3.15-3.87,4.71c-1.28,1.56-2.55,3.11-3.87,4.63c-2.59,3.07-5.23,6.06-7.94,9.01c-1.36,1.48-2.67,2.95-4.03,4.39
			c-2.71,2.91-5.46,5.74-8.22,8.54c-5.23,5.3-10.61,10.37-16.07,15.28c-12.32,11.01-25.17,21.06-38.61,30.19
			c-3.39,2.27-6.78,4.51-10.21,6.66c-1.71,1.08-3.43,2.15-5.15,3.19c-1.75,1.04-3.47,2.07-5.22,3.11c-1.76,1.04-3.51,2.03-5.26,3.03
			c-1.76,1-3.55,1.95-5.34,2.91c-0.84,0.48-1.71,0.92-2.59,1.4c-3.38,1.77-6.81,3.48-10.25,5.15c-6.63,3.26-13.32,6.39-20.18,9.25
			c0.04,0.16,0.08,0.32,0.12,0.48c1.83,6.02,2.51,11.73,2.27,17.11v0.16c-0.64,13.12-6.74,24.37-15.48,33.54
			c-0.08,0.08-0.12,0.12-0.2,0.2c-5.03,5.26-10.97,9.81-17.19,13.68c2.79,7.18,4.47,14.52,4.99,21.82
			c1.28,16.23-2.95,32.27-12.17,45.83c-0.12,0.16-0.2,0.32-0.32,0.48c-4.87,7.02-11.01,13.36-18.47,18.71
			c0.64,4.91,0.36,20.42,0,39.92c-0.48,25.61-1.12,58.03,0,82.08c0.56,12.52,1.63,22.81,3.43,28.64c0.68,2.19,1.48,3.75,2.35,4.59
			c11.01,17.95,18.39,29.2,23.25,39.17c0.08,0.12,0.12,0.2,0.12,0.28c4.27,8.81,6.54,16.63,7.54,27.2c0.92,9.93,0.72,22.34,0,40.28
			c24.05-0.24,39.57-0.88,49.54,0c9.57,0.8,14,2.95,15.83,8.18c0.04,0.04,0.04,0.08,0.04,0.12c1.91,5.54,0.96,14.48,0.2,28.8
			c-0.6,11.09-1.08,25.49,0,44.03c22.97,1.08,40.68,0.56,54.28,0c20.86-0.88,32.15-1.87,38.13,2.79c3.55,2.71,5.26,7.46,5.98,15.4
			c1.08,11.37,0.16,29.32,0,57.39c12.24-0.56,21.26-0.52,27.84,0.24c0.52,0.08,1.04,0.16,1.52,0.2c0.56,0.08,1.12,0.16,1.64,0.28
			c1.04,0.2,1.99,0.4,2.91,0.64c0.48,0.16,0.92,0.28,1.32,0.4c6.54,2.15,9.09,5.98,10.01,12.2c0.84,5.54,0.28,12.96,0,22.69
			c-0.12,4.63-0.16,9.77,0,15.48l-282.5,0.16c0.48-21.26-19.14-39.45-40.28-37.73c76.7-14.52,138-59.99,32.75-100.67
			c28.16-5.9,65.81-47.46,28.08-66.21c1.08-35.94,7.46-81.64-24.13-107.09c-0.8-8.5,3.15-136.13-4.79-139.24
			c-21.26,9.85-48.46-1.48-56.4-23.49c40.24,3.83,82.04-18.47,88.78-64.29c-39.21,7.58-81.52-3.19-112.36-28.52
			c28.68,12.84,92.01-1,101.19-28.64c-45.27,3.95-91.06-7.14-129.74-30.23c-0.72-0.4-1.44-0.84-2.15-1.28
			c-0.44-0.28-0.88-0.52-1.32-0.84c-2.19-1.32-4.31-2.71-6.46-4.15c-8.14-5.46-15.95-11.49-23.29-18.07
			c-22.26-11.09-43.51-24.25-63.3-39.33c-2.91-2.19-5.78-4.47-8.66-6.74c-0.04-0.04-0.12-0.08-0.16-0.16
			c-20.18-16.27-38.61-34.66-54.76-54.84h-0.04c-9.73-12.2-18.67-25.09-26.64-38.57c3.95,1.75,7.9,3.47,11.85,5.07
			c265.63,108.97,540.48-120.81,409.94-398.01c-8.61-16.27-19.62-32.19-32.94-44.95c-14.04-13.48-30.63-23.45-49.78-26.64
			c0.4-0.56,0.84-1.12,1.2-1.68c0.72-0.96,1.44-1.91,2.07-2.87c0.64-0.84,1.24-1.68,1.79-2.51c7.38-10.53,13.44-20.54,17.71-29.91
			c12.72-27.6,10.17-49.74-19.46-63.1c-1.12-0.52-2.31-1-3.51-1.52c-2.87-1.12-5.94-2.19-9.25-3.19c-6.26-1.91-13.4-3.51-21.38-4.87
			c10.97-0.24,18.23-7.94,20.54-16.95c2.47-9.73-0.92-21.02-11.77-25.93c25.05-6.42,51.17-11.85,77.5-14.64
			c2.11-0.24,4.23-0.44,6.38-0.64c19.42-1.75,38.93-1.95,58.11,0c1.83,0.16,3.67,0.4,5.5,0.64c16.31,1.99,32.35,5.66,47.94,11.41
			c5.94,2.15,11.85,4.67,17.67,7.46c1.99,1.04,3.99,2.15,5.98,3.31c0.64,0.36,1.24,0.72,1.87,1.12c5.58,3.31,11.01,6.98,16.39,10.69
			c0.04,0.04,0.04,0.04,0.08,0.08c17.63,12.16,34.86,25.25,55.48,31.51c0.72,0.24,1.44,0.44,2.19,0.64c11.09,4.15,26.64,1.83,41.6,0
			c1.83-0.2,3.63-0.44,5.42-0.64c8.65-0.92,16.91-1.4,23.73,0c0.88,0.16,1.76,0.4,2.59,0.64c6.54,1.91,11.53,5.98,13.8,13.6
			C1671.65,529.97,1672.09,535.75,1671.38,543.13z"/>
	</g>
</g>
<g>
	<path class="st2" d="M1663.56,612.27H866.42c-3.75,0-7.35-1.11-10.41-3.22c-3.39-2.31-5.96-5.77-7.21-9.71
		c-0.56-1.89-0.83-3.71-0.83-5.52v-68.16c0-10.17,8.27-18.44,18.44-18.44h797.14c10.17,0,18.44,8.27,18.44,18.44v68.16
		c0,1.8-0.27,3.63-0.8,5.44c-1.27,4.02-3.84,7.47-7.25,9.8C1670.91,611.15,1667.31,612.27,1663.56,612.27z M866.42,515.23
		c-5.75,0-10.44,4.68-10.44,10.44v68.16c0,1.02,0.16,2.12,0.48,3.18c0.68,2.16,2.14,4.12,4.08,5.44c1.73,1.19,3.76,1.82,5.88,1.82
		h797.14c2.12,0,4.15-0.62,5.86-1.81c1.95-1.33,3.41-3.29,4.12-5.53c0.29-0.98,0.45-2.08,0.45-3.1v-68.16
		c0-5.75-4.68-10.44-10.44-10.44H866.42z"/>
</g>
<g>
	<path class="st2" d="M1266.8,1269.55c-27.31,0-54.62-4.34-80.62-13.03c-10.71-3.56-21.58-7.76-32.3-12.5
		c-57.63-25.52-107.41-65.91-147.96-120.04c-33.83-45.15-61.65-100.41-82.68-164.22c-16.79-50.96-29.33-107.48-37.25-167.98
		c-13.48-102.96-8.86-182.96-8.81-183.76l0.23-3.76h778.55l0.44,3.5c0.02,0.16,0.07,0.61,0.07,1.34
		c0.35,6.62,2.96,62.36-3.95,138.44c-8.91,98.02-29.05,185.52-59.86,260.08v3.21l-1.35,0.03c-17.13,40.92-37.67,77.82-61.07,109.72
		v2.69l-2.05,0.02c-43.01,57.74-96.48,99.84-158.95,125.17c-6.85,2.8-13.99,5.44-21.81,8.06
		C1321.43,1265.2,1294.12,1269.55,1266.8,1269.55z M884.99,612.27c-0.72,16.92-2.79,88.98,8.96,178.64
		c12.35,94.16,42.9,227.54,118.38,328.28c39.72,53.02,88.44,92.56,144.79,117.52c10.49,4.63,21.11,8.75,31.59,12.23
		c50.36,16.83,105.82,16.82,156.17,0c7.65-2.57,14.63-5.15,21.33-7.89c61.67-25,114.39-66.75,156.72-124.11l1.25-1.63
		c23.32-31.89,43.75-68.86,60.74-109.92l1.03-2.47c30.11-73.46,49.83-159.6,58.6-256.09c6.28-69.06,4.65-121.14,4.06-134.55H884.99z
		"/>
</g>
<g>
	<path class="st2" d="M1260.56,1331.88c-30.12,0-58.5-7.02-79.91-19.77c-22.05-13.13-34.2-30.82-34.2-49.79
		c0-8.07,2.23-15.99,6.62-23.52l6.92,4.03c-3.67,6.3-5.53,12.86-5.53,19.49c0,33.94,47.6,61.55,106.1,61.55
		c58.52,0,106.13-27.61,106.13-61.55c0-5.26-1.17-10.5-3.48-15.55l7.28-3.33c2.79,6.11,4.21,12.46,4.21,18.88
		c0,18.97-12.15,36.66-34.2,49.79C1319.08,1324.86,1290.69,1331.88,1260.56,1331.88z"/>
</g>
<g>
	<path class="st2" d="M1260.56,1417.11c-48.16,0-87.34-35.57-87.34-79.3c0-8.94,1.64-17.73,4.86-26.13l6.99,2.68
		c-2.9,7.54-4.36,15.43-4.36,23.45c0,39.59,35.82,71.81,79.86,71.81c44.04,0,79.88-32.21,79.88-71.81c0-6.37-0.93-12.68-2.76-18.76
		l7.17-2.16c2.04,6.79,3.08,13.83,3.08,20.92C1347.93,1381.54,1308.74,1417.11,1260.56,1417.11z"/>
</g>
<g>
	<path class="st2" d="M1175.33,1647.46h-7.49v-33.32c0-7.82,2.11-15.51,6.09-22.24l25.56-43.15c3.3-5.57,5.05-11.94,5.05-18.42
		v-133.58h7.49v133.58c0,7.82-2.11,15.51-6.09,22.24l-25.56,43.15c-3.3,5.57-5.05,11.94-5.05,18.42V1647.46z"/>
</g>
<g>
	<path class="st2" d="M1353.29,1647.46h-7.49v-33.32c0-6.48-1.75-12.85-5.05-18.42l-25.56-43.15c-3.99-6.73-6.09-14.42-6.09-22.24
		v-133.58h7.49v133.58c0,6.48,1.75,12.85,5.05,18.42l25.56,43.15c3.99,6.73,6.09,14.42,6.09,22.24V1647.46z"/>
</g>
<g>
	<path class="st2" d="M1418.87,1732.32h-304.15v-63.48c0-8.7,7.09-15.78,15.81-15.78h272.53c8.72,0,15.81,7.08,15.81,15.78V1732.32z
		 M1122.21,1724.83h289.17v-55.99c0-4.57-3.73-8.29-8.32-8.29h-272.53c-4.59,0-8.32,3.72-8.32,8.29V1724.83z"/>
</g>
<g>
	<path class="st2" d="M1517.28,1813.43h-500.96v-63.48c0-8.85,10.46-15.78,23.81-15.78h453.33c13.35,0,23.81,6.93,23.81,15.78
		V1813.43z M1023.81,1805.95h485.98v-55.99c0-3.92-6.7-8.29-16.32-8.29h-453.33c-9.62,0-16.32,4.37-16.32,8.29V1805.95z"/>
</g>
<g>
	<path class="st2" d="M971.08,1872.97v-47.46c0-8.98,11.83-15.75,27.52-15.75h536.41c15.69,0,27.52,6.77,27.52,15.75v47.14l-3.74,0
		L971.08,1872.97z M998.59,1817.25c-12.23,0-20.03,4.89-20.03,8.26v39.97l576.46-0.31v-39.65c0-3.37-7.8-8.26-20.03-8.26H998.59z"/>
</g>
<g>
	<path class="st2" d="M1508.2,1133.34l14.44-15.86v-2.46h2.29c26.29-28.89,41.42-63.82,54.67-97.15c1.08-2.75,2.16-5.48,3.25-8.13
		c3.33-8.43,6.34-15.99,9.35-22.66l0.07-0.15c0.06-0.14,0.12-0.28,0.2-0.44l0.52-1.04l1-0.6c0.32-0.19,0.64-0.38,0.96-0.6l0.19-0.13
		c2.91-1.79,5.86-3.62,8.8-5.46l1.03-0.6c19.76-12.01,40.42-23.64,62.27-35.93c90.41-50.86,192.88-108.51,234.56-203.73l0.07-0.15
		c14.63-30.01,11.94-68.38-6.71-95.46c-14.99-21.77-37.37-32.5-63.04-30.22c-8.68,0.78-17.66,3.34-26.68,7.61
		c-21.91,10.29-54.02,29.95-69.54,39.95c-27.35,17.59-43.09,23.12-69.78,11.81c-0.88-0.38-1.74-0.75-2.65-1.16
		c-0.54-0.25-1.1-0.54-1.68-0.89l-0.14-0.09c-3.16-2.07-5.32-5.39-5.94-9.1c-0.61-3.68,0.32-7.33,2.62-10.27
		c1.03-1.34,2.2-2.84,3.5-4.46c1.13-1.46,2.45-3.08,3.58-4.47c6.27-7.77,12.86-15.45,19.56-22.81
		c24.69-27.17,63.17-63.78,106.34-83.9c51.05-23.79,96.72-19.53,135.72,12.67c47.21,39.01,69.46,92.73,62.64,151.25
		c-7.27,62.39-45.7,128.11-114.23,195.36c-78.86,77.39-196.04,154.74-348.27,229.9L1508.2,1133.34z M1599.18,991.04
		c-2.83,6.36-5.72,13.6-8.92,21.69c-1.09,2.66-2.16,5.35-3.23,8.08c-11.7,29.44-24.86,60.11-45.8,87.2
		c142.91-72.02,253.4-145.87,328.6-219.65c67.19-65.93,104.83-130.05,111.89-190.57c6.49-55.73-14.74-106.93-59.78-144.15
		c-83.05-68.56-180.4,14.71-231.04,70.44c-6.6,7.25-13.08,14.81-19.27,22.48c-1.12,1.36-2.39,2.92-3.5,4.36
		c-1.3,1.63-2.44,3.08-3.46,4.41c-0.93,1.19-1.3,2.62-1.06,4.07c0.25,1.49,1.1,2.82,2.36,3.67c0.29,0.17,0.56,0.32,0.8,0.42
		c0.85,0.39,1.66,0.73,2.47,1.08c23.17,9.82,35.88,5.83,62.31-11.17c15.68-10.1,48.18-29.99,70.46-40.46
		c9.87-4.67,19.76-7.48,29.38-8.34c28.67-2.55,53.66,9.4,70.35,33.65c20.22,29.37,23.17,70.92,7.35,103.44
		c-19.15,43.71-51.97,83.25-100.33,120.88c-42.42,33-90.81,60.22-137.6,86.55c-22.14,12.46-43.06,24.22-62.99,36.37l-0.98,0.59
		c-2.6,1.62-5.2,3.23-7.77,4.81C1599.34,990.94,1599.26,990.99,1599.18,991.04z"/>
</g>
<g>
	<path class="st2" d="M1022.47,1133.35l-18.99-9.38c-148.91-73.58-264.29-149.2-342.96-224.77c-0.27-0.23-0.49-0.45-0.67-0.62
		l-6.35-6.23c-0.32-0.28-0.64-0.59-0.91-0.87c-1.02-1.04-2.01-2.04-2.99-3.03c-0.99-1.01-1.98-2-2.94-2.98
		c-1-0.97-2.11-2.09-3.29-3.37c-1.1-1.1-2.19-2.23-3.24-3.37c-2.05-2.13-4.1-4.33-6.19-6.58c-2.23-2.39-4.37-4.73-6.54-7.14
		c-4.04-4.52-7.96-9.05-11.66-13.47c-28.41-33.98-49.16-67.86-61.67-100.7c-11.63-30.54-16.21-60.31-13.62-88.47
		c4.09-44.39,25.93-84.12,63.16-114.9c16.81-13.88,35.17-22.67,54.58-26.1l0.06-0.01c0.08-0.02,0.17-0.03,0.26-0.05l0.03-0.01
		c0.01,0,0.02,0,0.04,0c66.72-11.51,133.38,41.05,177.57,87.19c3.05,3.17,5.94,6.27,8.61,9.22c7.71,8.43,15.16,17.13,22.13,25.83
		c1.77,2.22,3.35,4.25,4.76,6.05l0.66,0.85c2.51,3.24,3.38,7.36,2.4,11.33c-0.99,4.01-3.74,7.3-7.53,9.02
		c-0.45,0.2-0.83,0.36-1.17,0.5c-11.33,4.99-20.35,7-29.2,6.52l-0.29-0.01c-13.18-0.79-25.75-7.35-41.77-17.66
		c-15.51-9.99-47.6-29.65-69.49-39.95c-2.2-1.02-4.49-1.99-6.79-2.88c-6.66-2.56-13.37-4.16-19.94-4.74
		c-2.8-0.26-5.68-0.34-8.55-0.27c-23.67,0.6-43.94,12.85-57.09,34.49c-16.41,27.02-18.03,62.92-4.12,91.45l0.07,0.15
		c41.72,95.24,144.21,152.91,234.64,203.78c25.9,14.57,50.37,28.34,73.25,42.72l1.02,0.64l0.5,1.1c3.44,7.63,6.92,16.4,10.61,25.69
		c12.78,32.22,28.68,72.32,58.16,104.05l0.17,0.19c0.19,0.23,0.39,0.44,0.6,0.66l0.42,0.46L1022.47,1133.35z M665.64,893.05
		l0.3,0.26c74.97,72.06,183.77,144.26,323.56,214.74c-23.18-30-36.81-64.38-48.07-92.76c-3.47-8.75-6.76-17.04-9.97-24.25
		c-22.43-14.05-46.46-27.57-71.89-41.88c-46.8-26.33-95.2-53.56-137.63-86.57c-48.38-37.64-81.22-77.18-100.38-120.9
		c-15.04-30.91-13.27-69.77,4.5-99.04c14.61-24.05,37.24-37.67,63.72-38.34c3.18-0.09,6.37,0.01,9.48,0.29
		c7.3,0.64,14.74,2.41,22.09,5.24c2.47,0.95,4.93,1.99,7.31,3.1c22.29,10.49,54.76,30.37,70.44,40.47
		c14.88,9.58,26.41,15.67,37.8,16.39l0.26,0.01c7.59,0.43,15.52-1.38,25.72-5.89l0.21-0.09c0.24-0.09,0.5-0.21,0.77-0.33
		c1.57-0.71,2.69-2.04,3.09-3.66c0.39-1.59,0.06-3.19-0.95-4.49l-0.66-0.84c-1.39-1.78-2.95-3.79-4.69-5.98
		c-6.85-8.56-14.19-17.12-21.8-25.44c-2.63-2.9-5.47-5.95-8.47-9.06c-42.88-44.77-107.27-95.83-170.57-84.82l-0.04,0.01
		c-0.09,0.02-0.19,0.04-0.3,0.05l0,0c-0.01,0-0.02,0-0.02,0c-17.98,3.21-35.05,11.41-50.74,24.37
		c-35.55,29.39-56.4,67.24-60.29,109.46c-5.18,56.25,20.22,119.64,73.45,183.3c3.64,4.35,7.51,8.81,11.48,13.26
		c2.13,2.37,4.24,4.67,6.44,7.03c2.07,2.23,4.09,4.4,6.14,6.53c1.05,1.13,2.09,2.21,3.14,3.26l0.1,0.11
		c1.11,1.19,2.13,2.24,3.12,3.19c1.03,1.05,2.01,2.04,2.99,3.03c0.99,1,1.99,2.01,2.99,3.03c0.14,0.14,0.34,0.35,0.54,0.52l0.2,0.18
		L665.64,893.05z M665.57,892.99L665.57,892.99C665.57,892.99,665.57,892.99,665.57,892.99z"/>
</g>
<g>
	<path class="st2" d="M1266.8,517.85l-0.1,0c-2.32-0.06-232.27-5.91-274.11-3.6c-2.65,0.15-5.07-1.32-6.19-3.7
		c-1.13-2.39-0.7-5.2,1.09-7.15l45.89-49.82c7.35-7.98,17.78-12.55,28.63-12.55h409.57c10.85,0,21.28,4.58,28.63,12.55l45.88,49.81
		c1.8,1.96,2.23,4.77,1.1,7.16c-1.12,2.38-3.53,3.82-6.17,3.7l-0.02,0c-41.84-2.3-271.79,3.54-274.11,3.6L1266.8,517.85z
		 M1027.23,505.7c76.21,0,230.55,3.91,239.57,4.15c10.58-0.27,220.91-5.6,270.9-3.76L1494.33,459c-5.84-6.34-14.13-9.97-22.74-9.97
		h-409.57c-8.62,0-16.91,3.63-22.74,9.97l-43.37,47.08C1003.25,505.81,1014.08,505.7,1027.23,505.7z"/>
</g>
<g>
	<path class="st2" d="M1331.55,436l-62.63,3.93l-62.6-3.93l21.98-23.6c25.23,12.59,52.55,11.06,81.27,0L1331.55,436z"/>
</g>
<g>
	<path class="st2" d="M1263.03,428.66c-31.9,0-57.85-25.95-57.85-57.85s25.95-57.85,57.85-57.85s57.85,25.95,57.85,57.85
		S1294.93,428.66,1263.03,428.66z M1263.03,318.44c-28.88,0-52.37,23.5-52.37,52.37c0,28.88,23.5,52.37,52.37,52.37
		c28.88,0,52.37-23.5,52.37-52.37C1315.4,341.94,1291.91,318.44,1263.03,318.44z"/>
</g>
<g>
	<path class="st2" d="M1584.53,607.76c8.6,168.65-16.53,424.37-165.61,529.25c-10.49,7.27-21.5,13.76-32.92,19.43
		c11.31-5.88,22.18-12.57,32.5-20.02c138.45-101.86,161.44-329.96,156.64-489.83c-0.46-12.64-1.13-25.39-2.21-37.83L1584.53,607.76
		L1584.53,607.76z"/>
</g>
<g>
	<path class="st2" d="M1506.38,607.76c2.86,55.87,0.41,112.15-5.37,167.73c-2.38,19.98-5.18,41.87-8.8,61.6
		c-2.24,13.56-6.51,33.49-9.48,46.87c-1.59,6.24-5.49,21.44-7.11,27.78c1.4-6.48,4.7-21.82,6.04-28.01
		c2.45-13.45,5.95-33.46,7.67-47.09c3.01-21.41,5.24-44.77,6.7-66.38c3.07-47.38,3.32-95.3,0.24-142.67
		c-0.4-6.3-0.91-12.66-1.5-18.83L1506.38,607.76L1506.38,607.76z"/>
</g>
<g>
	<path class="st2" d="M926.81,648c11.11,182.77,68.35,507.1,287.3,540.1c14.5,2.11,29.13,2.83,43.78,2.69
		c-29.34,1.41-58.97-1.92-86.89-11.31C984.44,1116.45,931.74,820.97,926.81,648L926.81,648z"/>
</g>
<g>
	<path class="st2" d="M995.24,810.17c23.18,104.06,56.58,212.08,131.27,291.23c10.67,11.1,22.29,21.3,34.72,30.44
		c-12.72-8.74-24.52-18.81-35.48-29.69C1050.37,1025.1,1015.27,913.86,995.24,810.17L995.24,810.17z"/>
</g>
<g>
	<path class="st2" d="M1090.28,1006.62c23.41,42.12,52.4,82.04,90.3,112.26c0,0,7.66,5.91,7.66,5.91c-2.64-1.86-5.28-3.71-7.9-5.61
		C1141.43,1090.07,1112.06,1049.72,1090.28,1006.62L1090.28,1006.62z"/>
</g>
<g>
	<path class="st2" d="M1568.27,955.31c-3.1,17.46-8.67,34.43-15.27,50.86c-8.87,21.85-20.24,42.93-33.74,62.25
		c-2.92,4.34-7.44,9.97-10.58,14.21C1536.03,1044.3,1557.32,1001.23,1568.27,955.31L1568.27,955.31z"/>
</g>
<g>
	<path class="st2" d="M1470.22,1124.8c-36.05,34.32-81.24,58.5-129.19,71.43c0,0-9.62,2.45-9.62,2.45l9.52-2.82
		C1388.37,1181.53,1432.98,1157.63,1470.22,1124.8L1470.22,1124.8z"/>
</g>
<g>
	<path class="st0" d="M1229.38,1380.89c12.73,6.92,29.38-9.51,13.7-18.04c-10.65-5.51-24.03-2.75-34.82-7.76
		c-4.1-0.29,0.34,7.37,1.49,9.39C1214.06,1372.04,1221.1,1378.1,1229.38,1380.89z"/>
</g>
<g>
	<path class="st0" d="M1200.01,1295.3c5.82,2.39,15.74,5.96,20.82,1.34C1214.96,1285.14,1166.33,1274.57,1200.01,1295.3z"/>
</g>
<g>
	<path class="st0" d="M1232.51,1492.65c-0.45,13.49,1.97,45.86,8.41,57.72c12.34-31.2,9.56-80.84,4.22-113.52
		C1230.48,1417.74,1232.45,1478.22,1232.51,1492.65z"/>
</g>
<g>
	<path class="st0" d="M1217.94,1585.58c-13.99,12.51-23.14,31.04-19.65,50.05c2.65,0.04,5.3,0.09,7.95,0.13
		c-8.55-29.46,20.67-46.32,33.22-68.29C1230.52,1570.59,1224.09,1579.13,1217.94,1585.58z"/>
</g>
<g>
	<ellipse class="st0" cx="1176.01" cy="1765.09" rx="78.83" ry="2.8"/>
</g>
<g>
	<ellipse class="st0" cx="1118.47" cy="1836.53" rx="78.83" ry="2.8"/>
</g>
<g>
	<ellipse class="st0" cx="1229.51" cy="1682.04" rx="78.83" ry="2.8"/>
</g>
<g>
	<path class="st0" d="M1044.86,533.89H884.74c-3.56,0-6.45,2.89-6.45,6.45v33.9l7.5-24.4c1.2-3.92,4.71-6.68,8.8-6.92
		L1044.86,533.89z"/>
</g>
<g>
	<path class="st5" d="M1169.21,466.28h-104.42c-2.32,0-4.21,1.88-4.21,4.21l-14.08,16.71c0,0,22.04-14.87,24.71-15.03
		L1169.21,466.28z"/>
</g>
<polygon class="st2" points="882.73,940.97 882.73,956.45 910.55,971.01 908.14,960.51 "/>
<polygon class="st2" points="718.17,944.58 709.15,956.45 788.51,1020.93 812.26,1020.93 814.96,1015.82 795.12,1000.49 "/>
<polygon class="st2" points="1731.16,1032.05 1724.15,1007.7 1818.97,944.23 1787.07,999.29 "/>
<polygon class="st2" points="1512.63,463.33 1520.15,481.07 1542.07,505.84 1543.29,509.84 1580.88,511.22 1572.45,490.09 "/>
<path class="st2" d="M993.21,490.69v17.84c0,0-19.84,4.3-20.29,2.7s-1.96-18.73-1.96-18.73L993.21,490.69z"/>
<polygon class="st2" points="1225.87,426.17 1208.29,443.62 1219.72,445.01 1324.61,443.62 1320.88,426.17 "/>
<path class="st2" d="M597.22,1535.9c10.83,27.46,22.78,53.97,35.87,79.42c68.6,133.43,175.26,253.61,317.01,357.22
	c92.72,67.76,198.75,127.38,315.4,177.35c116.65-49.97,222.68-109.58,315.4-177.35c141.76-103.6,248.41-223.79,317.01-357.22
	c14.59-28.38,27.78-58.08,39.57-88.94L597.22,1535.9z"/>
<path class="st2" d="M2298.69,1585.38c-2.44-22.34-11.41-104.44-11.41-104.44l-37.41-4.6c-20.26-2.49-40.94-4.94-61.47-7.27
	l-31.23-3.56c-1.82-17.76-3.64-35.51-5.45-53.25l13.15,0.57c20.12,0.87,40.28,1.77,59.93,2.69l55.6,2.59l-12.23-111.28
	c-1.14-10.32-3.9-20.28-8.24-29.63c-4.36-9.38-10.06-17.78-16.96-24.97c-7.17-7.47-15.42-13.5-24.54-17.92
	c-10.52-5.1-21.73-7.68-33.3-7.68h-123.38c-11.76,0-58.28,0-66.75,0l-148.65,0v0l-280.79,0l0,0l-131.06,0v0h-280.17l0,0.18
	c-1.71-0.11-3.42-0.18-5.15-0.18h-123.38c-10.41,0-20.51,1.93-30.03,5.74c-1.91,0.76-3.77,1.61-5.6,2.5
	c-9.3-5.37-19.96-8.24-31.12-8.24c0,0-157.56,0-157.56,0c-11.2,0-22.06,2.96-31.59,8.46c-1.28-0.66-2.57-1.29-3.9-1.88
	c-9.81-4.37-20.38-6.58-31.41-6.58H611.18c-10.92,0-21.52,2.22-31.53,6.58c-1.34,0.59-2.66,1.22-3.96,1.87
	c-9.2-5.52-248.19-8.45-248.19-8.45c-17,0-33.04,6.95-45.14,19.55c-10.45,10.88-16.86,24.72-18.54,39.99l-6,54.5l-7.43,67.63
	c-2.37,21.58-4.74,43.18-7.11,64.81l-9.01,82.39c-2.47,22.6-14.26,130.75-14.26,130.75l62.31-10.82
	c20.22-3.51,40.78-6.94,61.1-10.21l35.94-5.77l34.94-5.46l59.57-8.01c20.36-2.74,40.98-5.39,61.3-7.89l10.55-1.3l10.94-1.3
	c20.13-2.39,40.73-4.72,61.21-6.93l34.72-3.73l34.91-3.32c20.42-1.94,41.1-3.8,61.45-5.51l40.56-3.42l0-0.01l42.48-2.98
	c23.11-1.62,46.58-3.13,69.76-4.48l42.5-2.48c0,0,60.35-3.1,69.71-3.1c1.14,0,2.29-0.02,3.43-0.07c42.24-1.67,85.2-2.92,127.69-3.73
	c1.86-0.04,3.71-0.15,5.55-0.3v0.01l48.57-0.5c20.51-0.21,41.2-0.32,61.47-0.34l35.05-0.02l34.81,0.37
	c20.45,0.21,41.18,0.53,61.61,0.95l10.22,0.21l11.21,0.27c59.31,1.4,119.2,3.68,178.04,6.78c1.12,0.06,2.25,0.09,3.37,0.09
	c0,0,0,0,0,0l32.99,1.93c20.45,1.2,41.16,2.52,61.53,3.92l35.19,2.42l34.54,2.79c20.65,1.67,41.33,3.45,61.46,5.29l10.88,0.99
	l10.5,1c59.55,5.67,119.23,12.31,177.37,19.75c2.63,0.34,5.28,0.51,7.9,0.51c6.28,0,50.32,7.25,60.83,8.73
	c42.55,6.01,85.22,12.57,126.83,19.52c4.23,0.71,8.49,1.06,12.65,1.06c8,0,15.81-1.3,23.19-3.88c11.42-3.98,21.29-10.54,29.34-19.52
	c7.61-8.49,13.07-18.68,16.22-30.29C2299.14,1607.33,2299.91,1596.54,2298.69,1585.38z M1116.06,1420.04l-19.51,0.32l0.84-25.53
	l22.48-0.14c10.87-0.07,21.82-0.13,32.76-0.18l-0.25,25.01C1140.29,1419.66,1128.14,1419.83,1116.06,1420.04z"/>
<g>
	<path class="st5" d="M363.85,1274.21c2.7,0,5.1,0.79,7.2,2.36c2.1,1.57,3.64,3.7,4.6,6.38c7.21,20.19,14.48,40.12,21.82,59.81
		c2.67,6.93,5.34,13.82,8.02,20.68c5.61,14.16,11.25,28.19,16.94,42.09c8.53-14.73,17.02-29.32,25.48-43.77
		c4.01-7,8.02-13.96,12.02-20.9c11.59-19.72,23.12-39.17,34.58-58.37c1.6-2.55,3.59-4.57,5.96-6.06c2.37-1.48,4.85-2.22,7.46-2.23
		c12.21,0,24.42,0,36.64,0c4.05,0,7.32,1.48,9.79,4.43c2.47,2.95,3.51,6.59,3.11,10.94c-1.52,16.25-3.04,32.51-4.56,48.77
		c-0.62,6.58-1.23,13.16-1.85,19.74c-1.27,13.58-2.54,27.16-3.81,40.74c-1.8,19.29-3.6,38.59-5.41,57.9
		c-1.25,13.44-2.51,26.9-3.76,40.35c-1.03,11.07-2.06,22.14-3.09,33.21c-1.88,20.17-3.76,40.35-5.64,60.54
		c-20.62,2.53-41.23,5.19-61.84,7.96c2.03-20.71,4.05-41.41,6.08-62.09c1.11-11.35,2.23-22.7,3.34-34.05
		c1.35-13.79,2.71-27.58,4.06-41.37c1.94-19.8,3.89-39.58,5.83-59.36c-14.59,20.45-29.26,41.25-44.02,62.42
		c-10.29,14.74-20.63,29.67-31.01,44.8c-7.46-13.26-14.89-26.67-22.27-40.24c-10.57-19.49-21.06-39.29-31.46-59.43
		c-2.24,20.95-4.47,41.92-6.71,62.91c-1.56,14.61-3.11,29.23-4.67,43.86c-1.28,12.03-2.56,24.07-3.84,36.11
		c-2.33,21.94-4.66,43.89-6.99,65.86c-20.57,3.31-41.14,6.74-61.69,10.31c2.47-22.64,4.94-45.27,7.41-67.87
		c1.35-12.41,2.71-24.81,4.07-37.2c1.65-15.07,3.3-30.13,4.95-45.18c2.37-21.62,4.74-43.21,7.11-64.79
		c1.67-15.2,3.34-30.38,5.01-45.56c0.81-7.36,1.62-14.71,2.43-22.06c2-18.18,4-36.34,6-54.49c0.53-4.86,2.39-8.94,5.55-12.23
		c3.16-3.29,6.77-4.93,10.82-4.93C339.62,1274.21,351.74,1274.21,363.85,1274.21z"/>
	<path class="st5" d="M763.86,1305.72c-6.31,87.49-12.61,175.1-18.92,262.84c-20.66,1.74-41.31,3.59-61.96,5.56
		c3.33-42.35,6.66-84.66,9.99-126.94c-23.02,1.27-46.04,2.63-69.06,4.07c-3.72,43.28-7.43,86.61-11.15,129.98
		c-20.59,2.22-41.17,4.54-61.74,6.99c8.55-93.71,17.1-187.18,25.65-280.43c0.42-4.62,1.65-8.99,3.67-13.11
		c2.02-4.11,4.6-7.69,7.72-10.72c3.12-3.03,6.67-5.41,10.64-7.14c3.97-1.73,8.13-2.6,12.47-2.6c41.13,0,82.25,0,123.38,0
		c4.35,0,8.36,0.83,12.05,2.47c3.69,1.65,6.88,3.89,9.57,6.73c2.69,2.84,4.72,6.19,6.09,10.03
		C763.65,1297.29,764.18,1301.38,763.86,1305.72z M697.3,1392.33c1.51-19.11,3.01-38.21,4.52-57.31
		c-22.68,0.44-45.36,0.92-68.04,1.42c-1.68,19.54-3.36,39.1-5.04,58.66C651.59,1394.11,674.45,1393.19,697.3,1392.33z"/>
	<path class="st5" d="M972.75,1287.84c-0.44,9.86-0.88,19.73-1.32,29.59c-0.17,3.85-1.7,7.1-4.59,9.74
		c-2.89,2.64-6.38,3.99-10.47,4.03c-15.14,0.16-30.28,0.33-45.42,0.51c-0.31,5.9-0.62,11.79-0.94,17.69
		c-0.64,12.16-1.29,24.33-1.93,36.49c-0.91,17.27-1.83,34.55-2.75,51.82c-0.64,12.03-1.27,24.06-1.91,36.09
		c-0.52,9.89-1.05,19.79-1.57,29.69c-0.96,18.03-1.91,36.06-2.87,54.09c-23.44,1.37-46.88,2.87-70.32,4.52
		c1.14-18.33,2.27-36.65,3.41-54.96c0.62-10.05,1.25-20.11,1.87-30.16c0.76-12.22,1.51-24.45,2.27-36.67
		c1.09-17.55,2.18-35.1,3.27-52.65c0.77-12.36,1.53-24.71,2.3-37.07c0.37-5.99,0.74-11.98,1.11-17.96
		c-15.14,0.22-30.28,0.45-45.42,0.69c-4.09,0.06-7.45-1.24-10.09-3.92c-2.64-2.68-3.81-6.04-3.53-10.07
		c0.72-10.3,1.43-20.59,2.15-30.89c0.28-4.02,1.92-7.4,4.91-10.13c2.99-2.73,6.51-4.09,10.56-4.09c15.01,0,30.02,0,45.04,0
		c22.49,0,44.99,0,67.48,0c15.01,0,30.02,0,45.04,0c4.06,0,7.4,1.31,10.03,3.93C971.69,1280.75,972.92,1283.98,972.75,1287.84z"/>
	<path class="st5" d="M1178.17,1466.81c-0.23,17.16-0.46,34.32-0.68,51.48c-0.05,4.03-0.96,7.85-2.71,11.46
		c-1.76,3.61-4.16,6.76-7.22,9.44c-3.06,2.69-6.59,4.83-10.59,6.42c-4,1.59-8.27,2.43-12.8,2.52c-42.9,0.81-85.79,2.06-128.67,3.75
		c-4.53,0.18-8.75-0.42-12.67-1.81c-3.92-1.39-7.33-3.36-10.23-5.93c-2.91-2.57-5.14-5.65-6.69-9.23
		c-1.56-3.59-2.24-7.44-2.07-11.56c3.04-73.11,6.09-146.18,9.13-219.24c0.17-4.11,1.16-8,2.95-11.66c1.8-3.66,4.2-6.84,7.21-9.54
		c3.01-2.69,6.45-4.82,10.32-6.37c3.87-1.55,7.98-2.32,12.33-2.32c41.13,0,82.25,0,123.38,0c4.34,0,8.41,0.76,12.2,2.29
		c3.79,1.53,7.11,3.61,9.98,6.25c2.86,2.64,5.09,5.76,6.69,9.34c1.6,3.58,2.37,7.39,2.32,11.42c-0.19,14.42-0.38,28.85-0.57,43.28
		c-20.07,0.07-40.13,0.18-60.2,0.3c0.13-5.71,0.26-11.43,0.39-17.14c-22.69,0.11-45.38,0.25-68.07,0.41
		c-1.83,55.88-3.67,111.77-5.5,167.67c23.27-0.66,46.55-1.21,69.82-1.65c0.22-9.59,0.43-19.17,0.65-28.75
		C1137.29,1467.28,1157.73,1467.01,1178.17,1466.81z"/>
	<path class="st5" d="M1387.8,1274.21c1.77,91.35,3.53,182.71,5.3,274.08c-20.69-0.42-41.38-0.74-62.08-0.96
		c-0.39-38.49-0.77-76.99-1.16-115.48c-23.05-0.14-46.11-0.21-69.16-0.2c-0.02,38.45-0.05,76.89-0.07,115.33
		c-20.64,0.01-41.29,0.12-61.93,0.34c0.91-91.04,1.82-182.08,2.73-273.12c19.79,0,39.58,0,59.37,0
		c-0.02,35.85-0.05,71.7-0.07,107.56c22.88-0.01,45.75,0.04,68.63,0.14c-0.36-35.9-0.72-71.8-1.08-107.69
		C1348.13,1274.21,1367.96,1274.21,1387.8,1274.21z"/>
	<path class="st5" d="M1607.01,1516.28c0.44,8.79,0.88,17.58,1.32,26.38c0.1,1.94-0.21,3.73-0.93,5.35
		c-0.72,1.62-1.73,3.02-3.03,4.2c-1.3,1.18-2.83,2.06-4.61,2.66c-1.78,0.6-3.67,0.84-5.69,0.74c-59.77-3.14-119.57-5.41-179.38-6.83
		c-2.06-91.53-4.12-183.05-6.19-274.56c57.34,0,114.69,0,172.03,0c1.93,0,3.78,0.35,5.55,1.04c1.77,0.69,3.34,1.66,4.71,2.91
		c1.37,1.25,2.48,2.71,3.33,4.37c0.86,1.67,1.33,3.47,1.43,5.41c0.5,9.94,1,19.88,1.49,29.81c0.1,1.94-0.2,3.74-0.9,5.4
		c-0.7,1.66-1.67,3.1-2.92,4.33c-1.25,1.23-2.74,2.19-4.46,2.86c-1.72,0.67-3.55,1-5.5,0.98c-37.88-0.41-75.76-0.75-113.64-1.01
		c0.56,17.61,1.11,35.23,1.67,52.84c38.19,0.51,76.37,1.17,114.55,1.97c1.96,0.04,3.84,0.45,5.65,1.23c1.8,0.78,3.4,1.8,4.79,3.08
		c1.39,1.28,2.51,2.76,3.39,4.44c0.87,1.68,1.35,3.45,1.44,5.3c0.4,8.05,0.81,16.09,1.21,24.14c0.1,1.94-0.21,3.74-0.91,5.38
		c-0.71,1.64-1.7,3.06-2.97,4.27c-1.27,1.21-2.78,2.13-4.53,2.77c-1.75,0.64-3.61,0.93-5.59,0.87
		c-38.47-1.18-76.95-2.14-115.43-2.89c0.68,21.38,1.35,42.75,2.03,64.13c38.85,1.06,77.71,2.42,116.55,4.07
		c2,0.09,3.91,0.51,5.74,1.28c1.83,0.77,3.45,1.81,4.86,3.12c1.41,1.31,2.56,2.81,3.44,4.52
		C1606.42,1512.52,1606.91,1514.34,1607.01,1516.28z"/>
	<path class="st5" d="M1802.25,1274.21c1.54,20.13,3.08,40.27,4.63,60.42c0.47,6.19,0.95,12.39,1.42,18.59
		c0.94,12.29,1.88,24.59,2.82,36.89c0.22,2.83-0.29,5.44-1.53,7.83c-1.24,2.38-3.04,4.21-5.39,5.48c-3.43,1.9-6.87,3.8-10.31,5.69
		c-5.98,3.29-11.97,6.57-17.97,9.83c6.51,3.84,13.03,7.7,19.56,11.58c3.75,2.21,7.51,4.42,11.26,6.65c2.57,1.49,4.67,3.49,6.28,6
		c1.62,2.52,2.54,5.19,2.75,8.03c0.84,10.94,1.67,21.89,2.51,32.83c0.8,10.41,1.59,20.82,2.39,31.23
		c1.45,18.97,2.9,37.94,4.35,56.92c-20.65-1.89-41.31-3.66-61.97-5.33c-1.29-18.63-2.59-37.26-3.88-55.89
		c-0.71-10.22-1.42-20.45-2.13-30.67c-0.86-12.43-1.73-24.85-2.59-37.28c-23.03-1.08-46.07-2.08-69.1-3.01
		c0.74,12.2,1.49,24.4,2.23,36.6c0.61,10.04,1.22,20.07,1.83,30.11c1.11,18.28,2.23,36.57,3.34,54.87
		c-20.67-1.42-41.34-2.74-62.02-3.95c-0.96-18.04-1.91-36.07-2.87-54.1c-0.52-9.9-1.05-19.8-1.57-29.69
		c-0.55-10.41-1.1-20.81-1.65-31.22c-0.14-2.69,0.44-5.18,1.75-7.45c1.31-2.27,3.16-4.02,5.56-5.24c3.5-1.84,7-3.67,10.49-5.51
		c6.07-3.24,12.14-6.5,18.2-9.76c-6.46-3.62-12.9-7.22-19.34-10.8c-3.7-2.06-7.4-4.11-11.09-6.16c-2.53-1.37-4.57-3.23-6.11-5.59
		c-1.55-2.36-2.39-4.88-2.54-7.58c-0.62-11.7-1.24-23.41-1.86-35.11c-0.31-5.9-0.63-11.79-0.94-17.69
		c-1.02-19.17-2.03-38.35-3.05-57.51c19.84,0,39.68,0,59.52,0c1.19,19.43,2.37,38.86,3.56,58.3c0.36,5.98,0.73,11.95,1.09,17.93
		c0.75,12.33,1.5,24.67,2.26,37c22.87,0.63,45.73,1.31,68.59,2.05c-0.87-12.56-1.75-25.12-2.62-37.68
		c-0.42-6.09-0.85-12.17-1.27-18.26c-1.38-19.79-2.75-39.57-4.13-59.35C1762.57,1274.21,1782.41,1274.21,1802.25,1274.21z"/>
	<path class="st5" d="M2035.97,1550.18c0.97,10.04,1.93,20.09,2.9,30.14c0.21,2.22,0.01,4.24-0.61,6.04
		c-0.62,1.8-1.54,3.33-2.75,4.58c-1.22,1.25-2.69,2.16-4.42,2.72c-1.73,0.56-3.6,0.71-5.6,0.45
		c-59.58-7.62-119.22-14.23-178.91-19.92c-7.88-100.19-15.75-200.17-23.63-299.98c57.34,0,114.69,0,172.03,0
		c1.93,0,3.8,0.39,5.62,1.18c1.81,0.79,3.44,1.89,4.88,3.31c1.44,1.42,2.64,3.08,3.6,4.97c0.96,1.89,1.54,3.95,1.76,6.16
		c1.09,11.31,2.19,22.61,3.28,33.93c0.21,2.21,0.02,4.26-0.57,6.13c-0.6,1.88-1.48,3.51-2.66,4.89c-1.18,1.39-2.6,2.45-4.28,3.19
		s-3.49,1.08-5.43,1.03c-37.85-1-75.71-1.9-113.57-2.73c1.66,19.49,3.32,38.99,4.98,58.5c38.15,1.61,76.29,3.39,114.42,5.33
		c1.96,0.1,3.86,0.61,5.71,1.55c1.85,0.93,3.5,2.14,4.96,3.64c1.46,1.49,2.67,3.21,3.64,5.15c0.97,1.94,1.55,3.97,1.76,6.07
		c0.89,9.17,1.77,18.35,2.66,27.53c0.21,2.21,0.02,4.25-0.59,6.09c-0.61,1.84-1.51,3.42-2.7,4.75c-1.19,1.32-2.64,2.31-4.34,2.97
		c-1.7,0.66-3.54,0.91-5.51,0.76c-38.4-2.85-76.82-5.46-115.24-7.83c2.01,23.69,4.03,47.4,6.04,71.12
		c38.78,3.34,77.54,7.02,116.28,11.04c1.99,0.21,3.92,0.8,5.79,1.78c1.87,0.98,3.54,2.25,5.02,3.82c1.48,1.57,2.71,3.35,3.69,5.34
		C2035.16,1545.85,2035.76,1547.96,2035.97,1550.18z"/>
	<path class="st5" d="M2244.07,1523.58c2.44,22.3,4.88,44.61,7.31,66.96c0.57,5.25,0.27,10.08-0.92,14.46
		c-1.19,4.39-3.1,8.05-5.72,10.98c-2.63,2.93-5.81,5.04-9.55,6.34c-3.74,1.3-7.86,1.57-12.36,0.81c-42.63-7.12-85.3-13.67-128-19.7
		c-4.51-0.64-8.84-2.15-12.98-4.52c-4.14-2.38-7.87-5.34-11.18-8.9c-3.32-3.56-6.03-7.58-8.15-12.07
		c-2.12-4.49-3.41-9.13-3.88-13.93c-8.34-85.26-16.69-170.29-25.04-255.09c-0.47-4.78-0.09-9.27,1.14-13.51
		c1.23-4.23,3.13-7.91,5.72-11.04c2.59-3.13,5.7-5.6,9.33-7.42c3.63-1.81,7.62-2.73,11.96-2.73c41.13,0,82.25,0,123.38,0
		c4.34,0,8.53,0.97,12.56,2.92c4.03,1.95,7.68,4.63,10.95,8.04c3.27,3.41,5.98,7.44,8.14,12.08c2.15,4.64,3.52,9.57,4.09,14.78
		c2.05,18.63,4.1,37.28,6.15,55.94c-20.03-0.93-40.06-1.83-60.1-2.69c-0.76-7.15-1.53-14.29-2.29-21.44
		c-22.66-0.75-45.33-1.46-68-2.15c6.9,67.21,13.8,134.58,20.7,202.11c23.18,2.76,46.36,5.65,69.53,8.68
		c-1.28-12.05-2.56-24.09-3.84-36.13C2203.37,1518.67,2223.72,1521.08,2244.07,1523.58z"/>
</g>
<g>
	<path class="st5" d="M1015.5,1851.82c0-2.79,0-5.59,0-8.38c0.56-2.08,0.99-4.2,1.7-6.23c3.22-9.25,9.42-16.35,16.67-22.64
		c7.51-6.52,15.84-11.84,24.66-16.42c11.28-5.86,22.88-10.97,34.86-15.23c0.97-0.34,2.01-0.48,3.02-0.71
		c0.06,0.18,0.12,0.36,0.18,0.54c-0.74,0.48-1.48,0.96-2.23,1.44c-9.58,6.11-19.25,12.08-28.71,18.37
		c-11.34,7.55-21.33,16.63-29.36,27.71c-3.93,5.43-6.03,11.51-5.06,18.29c1.09,7.58,5.9,12.36,12.42,15.77
		c11.77,6.16,24.53,8.59,37.56,10.03c1.08,0.12,2.18,0.1,3.26,0.15c-1.16-1-2.37-1.54-3.61-1.96c-6.29-2.15-12.38-4.74-17.72-8.79
		c-12.26-9.3-13.92-23.14-3.91-34.83c3.74-4.38,7.92-8.45,12.29-12.21c10.26-8.83,22.37-14.63,34.61-20.11
		c23.62-10.58,48.24-18.28,73.19-24.97c23.85-6.39,47.89-12.07,72.29-15.91c19.6-3.08,39.29-5.55,58.97-8.07
		c7.52-0.96,15.11-1.37,22.67-1.95c7.07-0.55,14.15-1.3,21.24-1.41c11.23-0.17,22.46,0.06,33.69,0.24
		c9.13,0.15,18.26,0.32,27.37,0.77c8.2,0.41,16.42,0.89,24.55,1.9c16.46,2.05,32.53,5.76,47.81,12.43
		c8.29,3.62,15.74,8.39,21.86,15.1c6.41,7.02,10.02,15.33,11.3,24.7c0,2.79,0,5.59,0,8.38c-0.98,5.87-2.4,11.59-5.16,16.92
		c-6.2,11.98-15.53,21.27-26.14,29.19c-14.35,10.7-30.45,18.32-47.09,24.75c-6.89,2.66-13.97,4.83-20.97,7.2
		c-1.96,0.66-3.32,1.92-4.37,3.67c-9.21,15.46-20.62,29.12-34.08,41.02c-19.36,17.13-41.45,29.4-66.34,36.53
		c-10.87,3.12-21.91,5.54-33.23,6.12c-7.23,0.37-14.49,0.45-21.72,0.23c-7.16-0.22-14.37-0.49-21.43-1.59
		c-27.82-4.36-53.35-14.54-76.01-31.4c-11.45-8.52-21.29-18.82-30.72-29.48c-2.51-2.84-4.67-5.98-7.16-9.19
		c1.59-0.17,2.69-0.37,3.8-0.4c8.01-0.19,16.03-0.23,24.04-0.53c7.86-0.29,15.77-0.35,23.55-1.34c17.27-2.2,34.53-4.58,51.68-7.51
		c24.57-4.19,48.69-10.42,72.41-18.08c26.14-8.44,51.52-18.72,75.53-32.16c16.23-9.09,31.88-18.99,44.79-32.65
		c1.56-1.65,3.33-3.09,5.08-4.69c3.3,3.44,6.56,6.68,8.48,10.98c2.1,4.71,2.79,9.56,0.87,14.43c-1.09,2.76-2.46,5.51-4.18,7.91
		c-5.44,7.59-12.74,13.21-20.43,18.3c-11.85,7.86-24.64,13.92-37.8,19.22c-24.18,9.75-49.15,17-74.26,23.85
		c-5.56,1.52-11.11,3.08-16.67,4.62c0.59,0.32,1.12,0.34,1.63,0.26c32.66-5.37,64.97-12.14,96.25-23.2
		c19.19-6.79,37.84-14.71,54.62-26.46c8.04-5.63,15.3-12.07,20.39-20.68c6.58-11.12,4.57-23.69-5.31-32.02
		c-5.59-4.71-12.09-7.73-18.95-9.98c-14.77-4.83-30.07-6.6-45.48-7.15c-10.72-0.38-21.48-0.24-32.19,0.29
		c-11.18,0.56-22.35,1.6-33.47,2.89c-24.85,2.9-49.18,8.38-73.21,15.25c-1.28,0.37-2.53,0.83-3.79,1.25
		c0.86,0.33,1.61,0.25,2.35,0.12c8.65-1.54,17.27-3.23,25.94-4.61c19.61-3.13,39.29-5.68,59.19-5.71
		c14.58-0.02,29.16,0.22,43.73,0.46c9.8,0.16,19.37,2.13,28.9,4.22c0.68,0.15,1.33,0.48,2.47,0.91c-2.39,2.05-4.34,3.82-6.4,5.45
		c-18.86,15-39.85,26.4-61.81,36.06c-31.26,13.76-63.72,23.93-97.04,31.2c-18.78,4.1-37.72,7.53-56.69,10.69
		c-20.75,3.45-41.71,5.26-62.74,5.93c-8.15,0.26-16.32,0.08-24.47-0.29c-8.06-0.37-16.13-0.93-24.12-1.95
		c-13.27-1.68-26.24-4.63-38.21-10.93c-6.12-3.22-11.79-7.12-15.32-13.21C1017.93,1859.26,1016.92,1855.42,1015.5,1851.82z
		 M1199.82,1785.54c-0.03-0.14-0.07-0.28-0.1-0.42c-1.17,0.25-2.38,0.39-3.51,0.75c-6.91,2.21-13.8,4.45-20.7,6.71
		c-16.83,5.5-33.24,11.92-47.74,22.39c-8.79,6.35-16.64,13.58-21.59,23.47c-0.79,1.58-1.68,3.11-2.73,5.05
		c-2.83-7.99-4.04-15.85-5.14-23.88c-5.04,4.4-11.01,11.4-12.44,17.24c-1.49,6.11-0.44,11.63,4.55,15.72c2.43,2,5.3,3.66,8.23,4.81
		c9.93,3.89,20.47,4.87,30.98,5.2c8.69,0.28,17.45,0.09,26.1-0.76c13.15-1.3,26.32-2.88,39.33-5.18
		c29.11-5.16,57.51-13.11,85.17-23.61c2.47-0.94,4.91-1.96,7.37-2.95c-0.94-0.19-1.75-0.02-2.55,0.18
		c-8.67,2.12-17.32,4.32-26.01,6.35c-22.15,5.16-44.48,9.34-67.06,12.11c-13.96,1.71-27.97,3.05-42.06,3
		c-5.86-0.02-11.72-0.12-17.57-0.29c-3.32-0.09-6.63-0.39-10.01-0.59c0.05-1.02,0.06-1.85,0.13-2.67
		c0.45-5.23,1.11-10.37,3.78-15.07c4.32-7.6,10.32-13.64,17.13-18.97c12.32-9.64,26.16-16.47,40.62-22.18
		C1189.28,1789.85,1194.54,1787.68,1199.82,1785.54z M1499.97,1823.18c5.2-8.41,8.55-17.18,4.93-27.17
		c-3.45-9.53-10.68-14.88-20.15-17.82C1501.31,1789.36,1504.71,1804.84,1499.97,1823.18z M1294.53,1934.03
		c-3.29,0.01-5.46,2.14-5.43,5.32c0.03,3.07,2.34,5.91,4.79,5.91c2.03,0,6.17-3.53,6.2-5.28
		C1300.13,1937.47,1296.91,1934.02,1294.53,1934.03z M1212.32,1912.62c-1.62-0.01-2.82,1.3-2.85,3.17
		c-0.03,1.55,0.47,2.79,2.22,2.93c1.51,0.12,3.37-1.79,3.39-3.34C1215.09,1913.87,1213.86,1912.63,1212.32,1912.62z
		 M1325.43,1940.49c0.81-1.13,1.8-1.92,1.7-2.53c-0.12-0.72-1.17-1.3-1.82-1.93c-0.61,0.72-1.52,1.38-1.71,2.2
		C1323.5,1938.7,1324.55,1939.45,1325.43,1940.49z"/>
	<path class="st5" d="M1285.26,2025.66c-1.49-0.25-2.96-0.6-4.46-0.73c-19.73-1.71-38.75-6.39-57.19-13.55
		c-1.14-0.44-2.24-1-3.36-1.51c0.04-0.17,0.08-0.34,0.11-0.52c0.88,0.13,1.79,0.16,2.63,0.42c12.86,3.87,26.01,6.45,39.34,7.68
		c9.55,0.88,19.2,0.96,28.79,0.85c15.98-0.19,31.61-3.04,46.91-7.54c29.56-8.69,56.29-22.74,79.78-42.78
		c21.92-18.7,39.77-40.78,54.07-65.74c4.37-7.62,8.28-15.5,12.41-23.26c0.55-1.03,1.15-2.02,2.13-2.86c-0.99,2.8-1.93,5.62-2.97,8.4
		c-6.52,17.41-14.22,34.25-24.14,50.02c-8.73,13.88-18.99,26.53-30.85,37.86c-14.85,14.18-31.59,25.66-50.12,34.46
		c-20.79,9.87-42.65,15.96-65.6,18.06c-1.5,0.14-2.98,0.49-4.47,0.75C1300.62,2025.66,1292.94,2025.66,1285.26,2025.66z"/>
	<path class="st5" d="M1151.22,1615.15c-2.72,2.48-5.41,4.99-8.15,7.44c-11.59,10.33-23.31,20.52-34.76,31.01
		c-12.29,11.25-23.81,23.27-34.58,35.99c-0.61,0.72-1.11,1.54-1.66,2.32c-0.27-0.23-0.53-0.46-0.8-0.7
		c0.79-1.33,1.53-2.69,2.38-3.98c7.25-11.08,14.6-22.08,23.29-32.13c9.67-11.19,21.22-20.09,33.61-27.98
		c5.99-3.82,12.14-7.4,18.2-11.11c0.32-0.2,0.53-0.57,0.79-0.86C1150.1,1615.15,1150.66,1615.15,1151.22,1615.15z"/>
	<path class="st5" d="M1052.01,1988.97c-5.12-10.43-12.46-18.4-23.25-23.23c10.92-4.85,18.62-12.47,22.86-23.75
		c4.31,10.77,11.97,18.22,22.46,23.39C1063.89,1970.98,1055.99,1977.92,1052.01,1988.97z"/>
	<path class="st5" d="M1475.42,1930.81c10.15-4.23,16.75-11.01,20.59-20.91c4.43,8.92,9.99,16.65,20.49,20.22
		c-9.77,4.93-16.16,12.04-20.59,21.46C1491.88,1942.08,1484.86,1935.6,1475.42,1930.81z"/>
	<path class="st5" d="M1166.1,2009.91c-2.16-1.03-4.39-1.94-6.47-3.11c-8.38-4.71-16.93-9.17-25.02-14.34
		c-9.56-6.11-17.48-14.24-25.39-22.32c-11.72-11.97-22.29-24.91-32.14-38.45c-0.18-0.25-0.29-0.55-0.26-0.97
		c28.61,27.67,58.76,53.55,89.69,78.54C1166.38,2009.48,1166.24,2009.7,1166.1,2009.91z"/>
	<path class="st5" d="M1428.47,1732.75c-113.84-3.61-223.19,16.97-329.43,58.37c-0.06-2.14-0.33-4.16-0.14-6.14
		c3.3-35.19,16.2-66.45,38.88-93.55c14.54-17.37,32.07-31.09,52.16-41.58c18.69-9.75,38.49-15.95,59.37-18.6
		c11.91-1.51,23.88-1.57,35.87-0.59c19.01,1.56,37.26,6.07,54.71,13.73c16.87,7.4,32.13,17.28,45.81,29.65
		c14.57,13.17,26.49,28.41,36.1,45.49c2.15,3.83,4.1,7.77,6.12,11.67C1428.15,1731.61,1428.24,1732.07,1428.47,1732.75z
		 M1360.62,1706.79c4.24,0.01,7.43-3.24,7.48-7.59c0.04-4.42-3.17-7.8-7.48-7.88c-4.05-0.07-7.74,3.73-7.77,8.02
		C1352.82,1703.26,1356.48,1706.78,1360.62,1706.79z M1193.59,1692.59c0.04,2.47,2.45,5.26,4.51,5.21c2.69-0.07,5.5-2.67,5.47-5.08
		c-0.03-2.5-2.44-5.06-4.69-4.99C1196.08,1687.81,1193.56,1690.13,1193.59,1692.59z M1152.43,1711.22
		c-0.07-2.21-2.02-4.23-4.07-4.22c-2.28,0.02-4.27,1.79-4.2,3.76c0.07,2.25,2.01,4.28,4.06,4.25
		C1150.37,1714.98,1152.49,1713.07,1152.43,1711.22z M1229.86,1714.52c2.01,0.03,2.7-0.7,2.72-2.79c0.01-1.78-0.85-2.71-2.63-2.78
		c-1.73-0.07-3.2,1.24-3.22,2.86C1226.73,1713.21,1228.21,1714.5,1229.86,1714.52z M1302.31,1703.1c0.07-1.75-0.47-2.95-2.4-2.91
		c-1.62,0.04-2.06,1.2-2.13,2.53c-0.09,1.79,0.93,2.87,2.54,2.81C1301.93,1705.47,1302.45,1704.51,1302.31,1703.1z M1155.9,1743.92
		c0.91-1.24,1.93-2.09,1.78-2.55c-0.26-0.78-1.17-1.64-1.97-1.86c-1.28-0.35-2.02,0.8-1.87,1.86
		C1153.94,1742.11,1154.9,1742.74,1155.9,1743.92z M1260.89,1659.66c-0.89,1.27-1.84,2.02-1.78,2.69c0.05,0.66,1.06,1.61,1.77,1.74
		c0.53,0.09,1.79-0.98,1.76-1.46C1262.57,1661.8,1261.75,1661.02,1260.89,1659.66z M1164.72,1696.32c0.75,0.9,1.26,1.51,1.77,2.12
		c0.59-0.61,1.57-1.18,1.65-1.85c0.06-0.52-0.92-1.34-1.61-1.68C1166.27,1694.79,1165.52,1695.67,1164.72,1696.32z M1217.43,1721.47
		c0.63-0.95,1.31-1.55,1.21-1.94c-0.16-0.66-0.83-1.18-1.29-1.77c-0.51,0.48-1.45,0.98-1.43,1.44
		C1215.95,1719.84,1216.7,1720.44,1217.43,1721.47z M1261.24,1695.37c-1.03-0.58-1.61-1.14-2.2-1.15c-0.34-0.01-0.99,0.88-0.97,1.34
		c0.02,0.46,0.78,1.31,1.08,1.25C1259.76,1696.7,1260.27,1696.09,1261.24,1695.37z"/>
	<path class="st5" d="M1434.61,1675.83c12.45-5.05,21.07-13.64,25.92-26.4c4.67,12.36,13.08,20.89,25.64,26.08
		c-11.84,6.38-20.56,14.84-24.74,27.1c-3.86-5.44-7.3-10.81-11.29-15.74C1446.11,1681.88,1440.6,1678.65,1434.61,1675.83z"/>
	<path class="st5" d="M1045.16,1732.37c-4.92-12.44-12.81-21.36-24.9-26.66c11.65-5.36,20.17-13.45,24.14-26.38
		c1.25,2.29,2.41,4.07,3.23,5.99c3.01,6.98,7.74,12.53,13.78,17.03c1.16,0.87,1.31,1.66,0.43,2.95c-4.52,6.62-9,13.27-13.34,20.01
		C1047.24,1727.28,1046.47,1729.56,1045.16,1732.37z"/>
</g>
<path class="st5" d="M1397.19,1588.85c-1.33-0.16-2.68-0.23-3.98-0.49c-17.23-3.47-34.61-4.22-52.1-2.73
	c-1.09,0.09-2.16,0.3-3.24,0.45c-0.01,0.16-0.02,0.31-0.03,0.47c0.78,0.11,1.57,0.31,2.35,0.3c11.92-0.09,23.77,1,35.43,3.28
	c8.35,1.63,16.59,3.97,24.74,6.46c13.57,4.15,26.17,10.48,38.08,18.13c23.02,14.78,42.28,33.42,57.29,56.35
	c14.01,21.4,23.7,44.67,29.66,69.49c1.82,7.58,3.18,15.27,4.77,22.91c0.21,1.01,0.47,2.01,1.1,2.97c-0.14-2.63-0.24-5.27-0.44-7.9
	c-1.22-16.46-3.56-32.73-8.08-48.64c-3.98-14.01-9.56-27.34-16.83-39.95c-9.11-15.78-20.51-29.74-34.1-41.86
	c-15.25-13.59-32.35-24.24-51.38-31.75c-1.24-0.49-2.41-1.16-3.62-1.75C1410.28,1592.68,1403.73,1590.76,1397.19,1588.85z"/>
</svg>
